<?xml version="1.0" encoding="UTF-8" standalone="no"?>
<svg
   xmlns:dc="http://purl.org/dc/elements/1.1/"
   xmlns:cc="http://creativecommons.org/ns#"
   xmlns:rdf="http://www.w3.org/1999/02/22-rdf-syntax-ns#"
   xmlns:svg="http://www.w3.org/2000/svg"
   xmlns="http://www.w3.org/2000/svg"
   xmlns:sodipodi="http://sodipodi.sourceforge.net/DTD/sodipodi-0.dtd"
   xmlns:inkscape="http://www.inkscape.org/namespaces/inkscape"
   version="1.1"
   id="svg2"
   viewBox="0 0 541.71486 547.96485"
   height="154.64786mm"
   width="152.88397mm"
   inkscape:version="0.91 r13725"
   sodipodi:docname="reel-dark.svg">
  <sodipodi:namedview
     pagecolor="#ffffff"
     bordercolor="#666666"
     borderopacity="1"
     objecttolerance="10"
     gridtolerance="10"
     guidetolerance="10"
     inkscape:pageopacity="0"
     inkscape:pageshadow="2"
     inkscape:window-width="1422"
     inkscape:window-height="737"
     id="namedview7"
     showgrid="false"
     inkscape:zoom="1.2181599"
     inkscape:cx="352.70908"
     inkscape:cy="212.84993"
     inkscape:window-x="-8"
     inkscape:window-y="-8"
     inkscape:window-maximized="1"
     inkscape:current-layer="layer1" />
  <defs
     id="defs4" />
  <metadata
     id="metadata7">
    <rdf:RDF>
      <cc:Work
         rdf:about="">
        <dc:format>image/svg+xml</dc:format>
        <dc:type
           rdf:resource="http://purl.org/dc/dcmitype/StillImage" />
        <dc:title />
      </cc:Work>
    </rdf:RDF>
  </metadata>
  <g
     transform="translate(-96.318103,-272.71883)"
     id="layer1">
    <path
       id="path4138"
       d="M 367.17552,272.71883 A 270.85751,273.98279 0 0 0 96.318103,546.70125 270.85751,273.98279 0 0 0 367.17552,820.68367 270.85751,273.98279 0 0 0 638.03295,546.70125 270.85751,273.98279 0 0 0 367.17552,272.71883 Z m -12.71875,35.09374 c 17.89974,0.0372 33.66725,3.09909 42.16211,8.6504 26.67154,17.42957 26.47286,54.34178 11.22657,88.16406 -15.2463,33.82228 -57.35769,58.9138 -100.26758,41.49219 -49.49698,-20.096 -56.55,-77.21788 -43.21289,-101.73829 13.97258,-25.68875 55.91957,-36.63936 90.09179,-36.56836 z m 135.71289,48.55469 c 44.54614,-1.13335 91.93419,71.09809 90.30469,100.57422 -1.75868,31.81301 -33.82418,50.09918 -70.73828,53.80664 -36.9141,3.70746 -79.70097,-20.21603 -86.06836,-66.08789 -7.34484,-52.91364 38.5981,-87.58304 66.50195,-88.29297 z m -285.16992,44.73047 c 21.9726,0.58257 43.96008,16.70686 60.21094,39.29297 21.6678,30.11482 22.34133,79.12983 -14.20117,107.58008 -42.15214,32.81765 -95.14616,10.36517 -109.7129,-13.44531 -23.25459,-38.01142 15.60546,-115.16734 41.94727,-128.49414 7.10756,-3.59587 14.43166,-5.12779 21.75586,-4.9336 z m 152.11719,77.62305 a 15.357142,15.357142 0 0 1 8.40234,2.03906 15.357142,15.357142 0 0 1 5.6211,20.97852 15.357142,15.357142 0 0 1 -20.97657,5.62109 15.357142,15.357142 0 0 1 -5.62109,-20.97852 15.357142,15.357142 0 0 1 12.57422,-7.66015 z m 50.16602,18.08203 a 15.357142,15.357142 0 0 1 15.35546,15.35547 15.357142,15.357142 0 0 1 -15.35546,15.35742 15.357142,15.357142 0 0 1 -15.35743,-15.35742 15.357142,15.357142 0 0 1 15.35743,-15.35547 z m -89.98633,16.25586 a 15.357142,15.357142 0 0 1 13.66211,7.67383 15.357142,15.357142 0 0 1 -5.6211,20.97851 15.357142,15.357142 0 0 1 -20.97851,-5.62109 15.357142,15.357142 0 0 1 5.62109,-20.97852 15.357142,15.357142 0 0 1 7.31641,-2.05273 z m 214.90234,14.39062 c 27.91984,-0.0353 53.02366,14.66048 62.35547,29.91407 23.2546,38.01142 -15.60738,115.16726 -41.94922,128.49414 -28.43022,14.38344 -60.299,-4.2426 -81.9668,-34.35743 -21.6678,-30.11481 -22.3413,-79.13178 14.20118,-107.58203 15.14843,-11.79384 31.69702,-16.44892 47.35937,-16.46875 z m -164.93359,3.07227 a 15.357142,15.357142 0 0 1 13.66211,7.67383 15.357142,15.357142 0 0 1 -5.6211,20.97851 15.357142,15.357142 0 0 1 -20.97851,-5.62109 15.357142,15.357142 0 0 1 5.62109,-20.97852 15.357142,15.357142 0 0 1 7.31641,-2.05273 z m 50.5625,17.60351 a 15.357142,15.357142 0 0 1 13.66211,7.67383 15.357142,15.357142 0 0 1 -5.6211,20.97852 15.357142,15.357142 0 0 1 -20.97851,-5.62109 15.357142,15.357142 0 0 1 5.62109,-20.97852 15.357142,15.357142 0 0 1 7.31641,-2.05274 z m -90.4668,16.33008 a 15.357142,15.357142 0 0 1 15.35742,15.35742 15.357142,15.357142 0 0 1 -15.35742,15.35547 15.357142,15.357142 0 0 1 -15.35742,-15.35547 15.357142,15.357142 0 0 1 15.35742,-15.35742 z m -95.47461,16.39453 c 35.14015,-0.2585 73.11846,23.45607 79.08789,66.46094 7.34486,52.91364 -38.59615,87.58304 -66.5,88.29297 -44.54615,1.13335 -91.93614,-71.09809 -90.30664,-100.57422 1.75867,-31.81302 33.82614,-50.09917 70.74024,-53.80664 2.30713,-0.23171 4.63583,-0.35581 6.97851,-0.37305 z m 144.30469,2.10352 a 15.357142,15.357142 0 0 1 8.4043,2.03906 15.357142,15.357142 0 0 1 5.62109,20.97852 15.357142,15.357142 0 0 1 -20.97852,5.62109 15.357142,15.357142 0 0 1 -5.62109,-20.97851 15.357142,15.357142 0 0 1 12.57422,-7.66016 z m 23.2168,57.5957 c 9.03726,0.096 18.38494,1.87262 27.77148,5.6836 49.49699,20.09601 56.55001,77.21788 43.21289,101.73828 -21.29155,39.14478 -107.53961,44.06723 -132.25195,27.91797 -26.67153,-17.42957 -26.47482,-54.34179 -11.22852,-88.16407 11.91117,-26.42364 40.22016,-47.51851 72.4961,-47.17578 z"
       style="fill:#5f5f5f;fill-opacity:1;stroke:none;stroke-width:23.30714226;stroke-linecap:butt;stroke-linejoin:round;stroke-miterlimit:4;stroke-dasharray:none;stroke-dashoffset:226;stroke-opacity:1" />
  </g>
</svg>
