<?xml version="1.0" encoding="UTF-8" standalone="no"?>
<svg
   xmlns:dc="http://purl.org/dc/elements/1.1/"
   xmlns:cc="http://creativecommons.org/ns#"
   xmlns:rdf="http://www.w3.org/1999/02/22-rdf-syntax-ns#"
   xmlns:svg="http://www.w3.org/2000/svg"
   xmlns="http://www.w3.org/2000/svg"
   xmlns:sodipodi="http://sodipodi.sourceforge.net/DTD/sodipodi-0.dtd"
   xmlns:inkscape="http://www.inkscape.org/namespaces/inkscape"
   id="svg3347"
   version="1.1"
   viewBox="0 0 150 100"
   height="100"
   width="150"
   inkscape:version="0.91 r13725"
   sodipodi:docname="warwick.svg">
  <sodipodi:namedview
     pagecolor="#ffffff"
     bordercolor="#666666"
     borderopacity="1"
     objecttolerance="10"
     gridtolerance="10"
     guidetolerance="10"
     inkscape:pageopacity="0"
     inkscape:pageshadow="2"
     inkscape:window-width="732"
     inkscape:window-height="480"
     id="namedview295"
     showgrid="false"
     inkscape:zoom="1.92"
     inkscape:cx="75"
     inkscape:cy="50"
     inkscape:window-x="0"
     inkscape:window-y="0"
     inkscape:window-maximized="0"
     inkscape:current-layer="svg3347" />
  <style
     id="style3349">
.s0{
	fill-rule:nonzero;
	fill:#000;
}

</style>
  <defs
     id="defs3351">
    <clipPath
       id="clipPath3353"
       clipPathUnits="userSpaceOnUse">
      <path
         id="path3355"
         d="m 322.24,40.82 97.91,0 0,66.88 -97.91,0 0,-66.88 z" />
    </clipPath>
  </defs>
  <metadata
     id="metadata3359">
    <rdf:RDF>
      <cc:Work
         rdf:about="">
        <dc:format>
          image/svg+xml
        </dc:format>
        <dc:type
           rdf:resource="http://purl.org/dc/dcmitype/StillImage" />
        <dc:title />
      </cc:Work>
    </rdf:RDF>
  </metadata>
  <g
     id="g3361"
     transform="translate(0,-952.36219)"
     style="fill:#ffffff">
    <g
       id="g3363"
       transform="matrix(1.6469807,0,0,1.570296,-1025.5381,-743.73328)"
       style="fill:#ffffff">
      <g
         id="g3365"
         transform="matrix(1.25,0,0,-1.25,711.86591,1133.2871)"
         style="fill:#ffffff">
        <path
           style="fill:#ffffff;fill-rule:nonzero"
           id="path3367"
           class="s0"
           d="m 0,0 1.51,0 -5.82,5.5 5.5,5.51 -1.45,0 L -5.88,5.5 0,0 Z m -21.92,0 1.05,0 0,11.01 -1.05,0 0,-11.01 z m 0,0 1.05,0 0,11.01 -1.05,0 0,-11.01 z m 0,0 1.05,0 0,11.01 -1.05,0 0,-11.01 z m -38.33,0 3.23,11.01 -1.08,0 -2.79,-9.75 -2.6,8.82 -1.34,0 -2.64,-8.82 -2.79,9.75 -1.08,0 3.23,-11.01 1.29,0 2.67,8.86 2.62,-8.86 1.29,0 z" />
      </g>
      <path
         style="fill:#ffffff;fill-rule:nonzero"
         id="path3369"
         class="s0"
         d="m 703.79,1119.53 -1.31,0 0,13.76 1.31,0 0,-13.76 z" />
      <g
         id="g3371"
         transform="matrix(1.25,0,0,-1.25,642.61978,1128.4672)"
         style="fill:#ffffff">
        <path
           style="fill:#ffffff;fill-rule:nonzero"
           id="path3373"
           class="s0"
           d="M 0,0 2.63,6.03 5.25,0 0,0 Z m 3.12,7.15 -0.99,0 -4.92,-11.01 1.1,0 1.27,2.92 6.08,0 1.27,-2.92 1.1,0 -4.91,11.01 z" />
      </g>
      <g
         id="g3375"
         transform="matrix(1.25,0,0,-1.25,642.61978,1128.4672)"
         style="fill:#ffffff">
        <path
           style="fill:#ffffff;fill-rule:nonzero"
           id="path3377"
           class="s0"
           d="M 0,0 2.63,6.03 5.25,0 0,0 Z m 3.12,7.15 -0.99,0 -4.92,-11.01 1.1,0 1.27,2.92 6.08,0 1.27,-2.92 1.1,0 -4.91,11.01 z" />
      </g>
      <g
         id="g3379"
         transform="matrix(1.25,0,0,-1.25,678.21566,1133.2871)"
         style="fill:#ffffff">
        <path
           style="fill:#ffffff;fill-rule:nonzero"
           id="path3381"
           class="s0"
           d="m 0,0 3.23,11.01 -1.08,0 -2.79,-9.75 -2.55,8.82 -1.43,0 -2.59,-8.82 -2.79,9.75 -1.08,0 L -7.86,0 -6.58,0 -3.91,8.86 -1.29,0 0,0 Z" />
      </g>
      <g
         id="g3383"
         transform="matrix(1.25,0,0,-1.25,204.02916,1200.1657)"
         style="fill:#ffffff">
        <g
           id="g3385"
           clip-path="url(#clipPath4190-1)"
           style="fill:#ffffff">
          <g
             id="g3387"
             transform="translate(393.0706,54.1555)"
             style="fill:#ffffff">
            <path
               style="fill:#ffffff;fill-rule:nonzero"
               id="path3389"
               class="s0"
               d="m 0,0 c -2.94,0 -4.77,2.12 -4.77,4.85 l 0,0 c 0,0 0,0 0,0 0,2.74 1.83,4.88 4.77,4.88 1.13,0 2.53,-0.53 3.33,-1.71 l 0.85,0.64 c -1.06,1.43 -2.52,2 -4.18,2 -3.44,0 -5.82,-2.45 -5.82,-5.81 0,-3.36 2.39,-5.78 5.82,-5.78 1.66,0 3.12,0.57 4.18,2.01 L 3.33,1.71 C 2.53,0.53 1.13,0 0,0" />
          </g>
          <g
             id="g3391"
             transform="translate(364.4196,58.6281)"
             style="fill:#ffffff">
            <path
               style="fill:#ffffff;fill-rule:nonzero"
               id="path3393"
               class="s0"
               d="m 0,0 c 1.23,0.21 2.77,0.86 2.77,2.89 0,2.89 -2.92,2.99 -3.81,2.99 l -3.15,0 0,-11.01 1.04,0 0,10.08 2.25,0 c 2.21,0 2.62,-1.3 2.62,-2.06 0,-0.76 -0.43,-2.05 -2.62,-2.06 l -1.2,0 0,-0.93 1.06,0 3.02,-5.03 1.19,0 L 0,0 Z" />
          </g>
          <g
             id="g3395"
             transform="translate(379.3201,90.756)"
             style="fill:#ffffff">
            <path
               style="fill:#ffffff;fill-rule:nonzero"
               id="path3397"
               class="s0"
               d="m 0,0 c -0.09,0.14 -0.24,0.23 -0.42,0.23 -0.28,0 -0.5,-0.22 -0.5,-0.5 0,-0.28 0.22,-0.5 0.5,-0.5 0.18,0 0.33,0.09 0.42,0.23 L 0,0 Z" />
          </g>
          <g
             id="g3399"
             transform="translate(359.5525,94.2987)"
             style="fill:#ffffff">
            <path
               style="fill:#ffffff;fill-rule:nonzero"
               id="path3401"
               class="s0"
               d="m 0,0 c 0,-0.15 0.12,-0.27 0.27,-0.27 0.15,0 0.27,0.12 0.27,0.27 0,0.15 -0.12,0.27 -0.27,0.27 C 0.12,0.27 0,0.15 0,0" />
          </g>
          <g
             id="g3403"
             transform="translate(361.5554,94.2987)"
             style="fill:#ffffff">
            <path
               style="fill:#ffffff;fill-rule:nonzero"
               id="path3405"
               class="s0"
               d="m 0,0 c 0,-0.1 0.08,-0.18 0.19,-0.18 0.1,0 0.18,0.08 0.18,0.18 0,0.1 -0.08,0.19 -0.18,0.19 C 0.08,0.19 0,0.1 0,0" />
          </g>
          <g
             id="g3407"
             transform="translate(363.5359,94.2987)"
             style="fill:#ffffff">
            <path
               style="fill:#ffffff;fill-rule:nonzero"
               id="path3409"
               class="s0"
               d="m 0,0 c 0,-0.06 0.05,-0.11 0.11,-0.11 0.06,0 0.11,0.05 0.11,0.11 0,0.06 -0.05,0.11 -0.1,0.11 C 0.05,0.11 0,0.06 0,0" />
          </g>
          <g
             id="g3411"
             transform="translate(357.5609,94.2987)"
             style="fill:#ffffff">
            <path
               style="fill:#ffffff;fill-rule:nonzero"
               id="path3413"
               class="s0"
               d="m 0,0 c 0,-0.2 0.16,-0.36 0.36,-0.36 0.2,0 0.36,0.16 0.36,0.36 0,0.2 -0.16,0.36 -0.36,0.36 C 0.16,0.36 0,0.2 0,0" />
          </g>
          <g
             id="g3415"
             transform="translate(351.8118,94.2987)"
             style="fill:#ffffff">
            <path
               style="fill:#ffffff;fill-rule:nonzero"
               id="path3417"
               class="s0"
               d="m 0,0 c 0,-0.22 0.18,-0.41 0.41,-0.41 0.23,0 0.41,0.18 0.41,0.41 0,0.23 -0.18,0.41 -0.41,0.41 C 0.18,0.41 0,0.23 0,0" />
          </g>
          <g
             id="g3419"
             transform="translate(350.8157,93.3631)"
             style="fill:#ffffff">
            <path
               style="fill:#ffffff;fill-rule:nonzero"
               id="path3421"
               class="s0"
               d="m 0,0 c 0,-0.26 0.21,-0.47 0.47,-0.47 0.26,0 0.47,0.21 0.47,0.47 0,0.26 -0.21,0.47 -0.47,0.47 C 0.21,0.47 0,0.26 0,0" />
          </g>
          <g
             id="g3423"
             transform="translate(352.7017,93.3631)"
             style="fill:#ffffff">
            <path
               style="fill:#ffffff;fill-rule:nonzero"
               id="path3425"
               class="s0"
               d="m 0,0 c 0,-0.26 0.21,-0.47 0.47,-0.47 0.26,0 0.47,0.21 0.47,0.47 0,0.26 -0.21,0.47 -0.47,0.47 C 0.21,0.47 0,0.26 0,0" />
          </g>
          <g
             id="g3427"
             transform="translate(354.5879,93.3631)"
             style="fill:#ffffff">
            <path
               style="fill:#ffffff;fill-rule:nonzero"
               id="path3429"
               class="s0"
               d="m 0,0 c 0,-0.26 0.21,-0.47 0.47,-0.47 0.26,0 0.47,0.21 0.47,0.47 0,0.26 -0.21,0.47 -0.47,0.47 C 0.21,0.47 0,0.26 0,0" />
          </g>
          <g
             id="g3431"
             transform="translate(356.5497,93.3631)"
             style="fill:#ffffff">
            <path
               style="fill:#ffffff;fill-rule:nonzero"
               id="path3433"
               class="s0"
               d="m 0,0 c 0,-0.23 0.19,-0.42 0.42,-0.42 0.23,0 0.42,0.19 0.42,0.42 0,0.23 -0.19,0.42 -0.42,0.42 C 0.19,0.42 0,0.23 0,0" />
          </g>
          <g
             id="g3435"
             transform="translate(358.4811,93.3631)"
             style="fill:#ffffff">
            <path
               style="fill:#ffffff;fill-rule:nonzero"
               id="path3437"
               class="s0"
               d="m 0,0 c 0,-0.22 0.18,-0.41 0.41,-0.41 0.23,0 0.41,0.18 0.41,0.41 0,0.23 -0.18,0.41 -0.41,0.41 C 0.18,0.41 0,0.23 0,0" />
          </g>
          <g
             id="g3439"
             transform="translate(360.4126,93.3631)"
             style="fill:#ffffff">
            <path
               style="fill:#ffffff;fill-rule:nonzero"
               id="path3441"
               class="s0"
               d="m 0,0 c 0,-0.2 0.16,-0.36 0.36,-0.36 0.2,0 0.36,0.16 0.36,0.36 0,0.2 -0.16,0.36 -0.36,0.36 C 0.16,0.36 0,0.2 0,0" />
          </g>
          <g
             id="g3443"
             transform="translate(362.3589,93.3631)"
             style="fill:#ffffff">
            <path
               style="fill:#ffffff;fill-rule:nonzero"
               id="path3445"
               class="s0"
               d="m 0,0 c 0,-0.18 0.15,-0.33 0.33,-0.33 0.18,0 0.33,0.15 0.33,0.33 0,0.18 -0.15,0.33 -0.33,0.33 C 0.15,0.33 0,0.18 0,0" />
          </g>
          <g
             id="g3447"
             transform="translate(364.2917,93.3631)"
             style="fill:#ffffff">
            <path
               style="fill:#ffffff;fill-rule:nonzero"
               id="path3449"
               class="s0"
               d="m 0,0 c 0,-0.17 0.14,-0.3 0.3,-0.3 0.17,0 0.31,0.14 0.31,0.31 0,0.17 -0.14,0.3 -0.3,0.3 C 0.14,0.3 0,0.17 0,0" />
          </g>
          <g
             id="g3451"
             transform="translate(366.1969,93.3631)"
             style="fill:#ffffff">
            <path
               style="fill:#ffffff;fill-rule:nonzero"
               id="path3453"
               class="s0"
               d="m 0,0 c 0,-0.17 0.14,-0.3 0.3,-0.3 0.17,0 0.31,0.14 0.31,0.31 0,0.17 -0.14,0.3 -0.3,0.3 C 0.14,0.3 0,0.17 0,0" />
          </g>
          <g
             id="g3455"
             transform="translate(368.1021,93.3631)"
             style="fill:#ffffff">
            <path
               style="fill:#ffffff;fill-rule:nonzero"
               id="path3457"
               class="s0"
               d="m 0,0 c 0,-0.17 0.14,-0.3 0.31,-0.3 0.17,0 0.3,0.14 0.3,0.31 0,0.17 -0.14,0.3 -0.3,0.3 C 0.14,0.3 0,0.17 0,0" />
          </g>
          <g
             id="g3459"
             transform="translate(370.0073,93.3631)"
             style="fill:#ffffff">
            <path
               style="fill:#ffffff;fill-rule:nonzero"
               id="path3461"
               class="s0"
               d="m 0,0 c 0,-0.17 0.14,-0.3 0.3,-0.3 0.17,0 0.31,0.14 0.31,0.31 0,0.17 -0.14,0.3 -0.3,0.3 C 0.14,0.3 0,0.17 0,0" />
          </g>
          <g
             id="g3463"
             transform="translate(370.9407,92.4288)"
             style="fill:#ffffff">
            <path
               style="fill:#ffffff;fill-rule:nonzero"
               id="path3465"
               class="s0"
               d="m 0,0 c 0,-0.17 0.14,-0.3 0.3,-0.3 0.17,0 0.3,0.14 0.3,0.31 0,0.17 -0.14,0.3 -0.3,0.3 C 0.14,0.3 0,0.17 0,0" />
          </g>
          <g
             id="g3467"
             transform="translate(369.0442,92.4288)"
             style="fill:#ffffff">
            <path
               style="fill:#ffffff;fill-rule:nonzero"
               id="path3469"
               class="s0"
               d="m 0,0 c 0,-0.17 0.14,-0.3 0.3,-0.3 0.17,0 0.31,0.14 0.31,0.31 0,0.17 -0.14,0.3 -0.3,0.3 C 0.14,0.3 0,0.17 0,0" />
          </g>
          <g
             id="g3471"
             transform="translate(367.141,92.4288)"
             style="fill:#ffffff">
            <path
               style="fill:#ffffff;fill-rule:nonzero"
               id="path3473"
               class="s0"
               d="m 0,0 c 0,-0.17 0.14,-0.3 0.3,-0.3 0.17,0 0.31,0.14 0.31,0.31 0,0.17 -0.14,0.3 -0.3,0.3 C 0.14,0.3 0,0.17 0,0" />
          </g>
          <g
             id="g3475"
             transform="translate(365.2379,92.4288)"
             style="fill:#ffffff">
            <path
               style="fill:#ffffff;fill-rule:nonzero"
               id="path3477"
               class="s0"
               d="m 0,0 c 0,-0.17 0.14,-0.3 0.31,-0.3 0.17,0 0.3,0.14 0.3,0.31 0,0.17 -0.14,0.3 -0.3,0.3 C 0.14,0.3 0,0.17 0,0" />
          </g>
          <g
             id="g3479"
             transform="translate(363.3092,92.4288)"
             style="fill:#ffffff">
            <path
               style="fill:#ffffff;fill-rule:nonzero"
               id="path3481"
               class="s0"
               d="m 0,0 c 0,-0.18 0.15,-0.33 0.33,-0.33 0.18,0 0.33,0.15 0.33,0.33 0,0.18 -0.15,0.33 -0.33,0.33 C 0.15,0.33 0,0.18 0,0" />
          </g>
          <g
             id="g3483"
             transform="translate(361.3649,92.4288)"
             style="fill:#ffffff">
            <path
               style="fill:#ffffff;fill-rule:nonzero"
               id="path3485"
               class="s0"
               d="m 0,0 c 0,-0.2 0.16,-0.36 0.36,-0.36 0.2,0 0.37,0.16 0.37,0.37 0,0.2 -0.16,0.36 -0.36,0.36 C 0.16,0.36 0,0.2 0,0" />
          </g>
          <g
             id="g3487"
             transform="translate(359.4273,92.4288)"
             style="fill:#ffffff">
            <path
               style="fill:#ffffff;fill-rule:nonzero"
               id="path3489"
               class="s0"
               d="M 0,0 C 0,-0.22 0.18,-0.4 0.4,-0.4 0.62,-0.4 0.8,-0.22 0.8,0 0.8,0.22 0.62,0.4 0.4,0.4 0.18,0.4 0,0.22 0,0" />
          </g>
          <g
             id="g3491"
             transform="translate(357.483,92.4288)"
             style="fill:#ffffff">
            <path
               style="fill:#ffffff;fill-rule:nonzero"
               id="path3493"
               class="s0"
               d="m 0,0 c 0,-0.24 0.19,-0.43 0.43,-0.43 0.24,0 0.43,0.19 0.43,0.43 0,0.24 -0.19,0.43 -0.43,0.43 C 0.19,0.43 0,0.24 0,0" />
          </g>
          <g
             id="g3495"
             transform="translate(355.5523,92.4288)"
             style="fill:#ffffff">
            <path
               style="fill:#ffffff;fill-rule:nonzero"
               id="path3497"
               class="s0"
               d="m 0,0 c 0,-0.26 0.21,-0.47 0.47,-0.47 0.26,0 0.47,0.21 0.47,0.47 0,0.26 -0.21,0.47 -0.47,0.47 C 0.21,0.47 0,0.26 0,0" />
          </g>
          <g
             id="g3499"
             transform="translate(353.6286,92.4288)"
             style="fill:#ffffff">
            <path
               style="fill:#ffffff;fill-rule:nonzero"
               id="path3501"
               class="s0"
               d="m 0,0 c 0,-0.27 0.22,-0.49 0.49,-0.49 0.27,0 0.49,0.22 0.49,0.49 0,0.27 -0.22,0.49 -0.49,0.49 C 0.22,0.49 0,0.27 0,0" />
          </g>
          <g
             id="g3503"
             transform="translate(351.739,92.4288)"
             style="fill:#ffffff">
            <path
               style="fill:#ffffff;fill-rule:nonzero"
               id="path3505"
               class="s0"
               d="m 0,0 c 0,-0.27 0.22,-0.49 0.49,-0.49 0.27,0 0.49,0.22 0.49,0.49 0,0.27 -0.22,0.49 -0.49,0.49 C 0.22,0.49 0,0.27 0,0" />
          </g>
          <g
             id="g3507"
             transform="translate(354.5835,91.4807)"
             style="fill:#ffffff">
            <path
               style="fill:#ffffff;fill-rule:nonzero"
               id="path3509"
               class="s0"
               d="m 0,0 c 0,-0.27 0.22,-0.49 0.49,-0.49 0.27,0 0.49,0.22 0.49,0.49 0,0.27 -0.22,0.49 -0.49,0.49 C 0.22,0.49 0,0.27 0,0" />
          </g>
          <g
             id="g3511"
             transform="translate(356.5073,91.4807)"
             style="fill:#ffffff">
            <path
               style="fill:#ffffff;fill-rule:nonzero"
               id="path3513"
               class="s0"
               d="m 0,0 c 0,-0.26 0.21,-0.47 0.47,-0.47 0.26,0 0.47,0.21 0.47,0.47 0,0.26 -0.21,0.47 -0.47,0.47 C 0.21,0.47 0,0.26 0,0" />
          </g>
          <g
             id="g3515"
             transform="translate(358.4449,91.4807)"
             style="fill:#ffffff">
            <path
               style="fill:#ffffff;fill-rule:nonzero"
               id="path3517"
               class="s0"
               d="m 0,0 c 0,-0.23 0.19,-0.42 0.42,-0.42 0.23,0 0.42,0.19 0.42,0.42 0,0.23 -0.19,0.42 -0.42,0.42 C 0.19,0.42 0,0.23 0,0" />
          </g>
          <g
             id="g3519"
             transform="translate(360.4102,91.4807)"
             style="fill:#ffffff">
            <path
               style="fill:#ffffff;fill-rule:nonzero"
               id="path3521"
               class="s0"
               d="m 0,0 c 0,-0.21 0.17,-0.38 0.38,-0.38 0.21,0 0.38,0.17 0.38,0.38 0,0.21 -0.17,0.38 -0.38,0.38 C 0.17,0.38 0,0.21 0,0" />
          </g>
          <g
             id="g3523"
             transform="translate(362.3574,91.4807)"
             style="fill:#ffffff">
            <path
               style="fill:#ffffff;fill-rule:nonzero"
               id="path3525"
               class="s0"
               d="m 0,0 c 0,-0.19 0.15,-0.34 0.34,-0.34 0.19,0 0.34,0.15 0.34,0.34 0,0.19 -0.15,0.34 -0.34,0.34 C 0.15,0.34 0,0.19 0,0" />
          </g>
          <g
             id="g3527"
             transform="translate(364.2634,91.4807)"
             style="fill:#ffffff">
            <path
               style="fill:#ffffff;fill-rule:nonzero"
               id="path3529"
               class="s0"
               d="m 0,0 c 0,-0.19 0.15,-0.34 0.34,-0.34 0.19,0 0.34,0.15 0.34,0.34 0,0.19 -0.15,0.34 -0.34,0.34 C 0.15,0.34 0,0.19 0,0" />
          </g>
          <g
             id="g3531"
             transform="translate(366.2108,91.4807)"
             style="fill:#ffffff">
            <path
               style="fill:#ffffff;fill-rule:nonzero"
               id="path3533"
               class="s0"
               d="M 0,0 C 0,-0.16 0.13,-0.29 0.3,-0.29 0.46,-0.29 0.59,-0.16 0.59,0 0.59,0.16 0.46,0.3 0.3,0.3 0.13,0.3 0,0.16 0,0" />
          </g>
          <g
             id="g3535"
             transform="translate(368.1168,91.4807)"
             style="fill:#ffffff">
            <path
               style="fill:#ffffff;fill-rule:nonzero"
               id="path3537"
               class="s0"
               d="m 0,0 c 0,-0.16 0.13,-0.29 0.3,-0.29 0.16,0 0.3,0.13 0.3,0.3 0,0.16 -0.13,0.3 -0.3,0.3 C 0.13,0.3 0,0.16 0,0" />
          </g>
          <g
             id="g3539"
             transform="translate(370.023,91.4807)"
             style="fill:#ffffff">
            <path
               style="fill:#ffffff;fill-rule:nonzero"
               id="path3541"
               class="s0"
               d="M 0,0 C 0,-0.16 0.13,-0.29 0.3,-0.29 0.46,-0.29 0.59,-0.16 0.59,0 0.59,0.16 0.46,0.3 0.3,0.3 0.13,0.3 0,0.16 0,0" />
          </g>
          <g
             id="g3543"
             transform="translate(372.7937,90.4638)"
             style="fill:#ffffff">
            <path
               style="fill:#ffffff;fill-rule:nonzero"
               id="path3545"
               class="s0"
               d="M 0,0 C 0,-0.19 0.16,-0.35 0.35,-0.35 0.54,-0.35 0.7,-0.19 0.7,0 0.7,0.19 0.54,0.35 0.35,0.35 0.16,0.35 0,0.19 0,0" />
          </g>
          <g
             id="g3547"
             transform="translate(369.0118,90.4638)"
             style="fill:#ffffff">
            <path
               style="fill:#ffffff;fill-rule:nonzero"
               id="path3549"
               class="s0"
               d="M 0,0 C 0,-0.19 0.16,-0.35 0.35,-0.35 0.54,-0.35 0.7,-0.19 0.7,0 0.7,0.19 0.54,0.35 0.35,0.35 0.16,0.35 0,0.19 0,0" />
          </g>
          <g
             id="g3551"
             transform="translate(367.1156,90.4638)"
             style="fill:#ffffff">
            <path
               style="fill:#ffffff;fill-rule:nonzero"
               id="path3553"
               class="s0"
               d="m 0,0 c 0,-0.19 0.15,-0.34 0.34,-0.34 0.19,0 0.34,0.15 0.34,0.34 0,0.19 -0.15,0.34 -0.34,0.34 C 0.15,0.34 0,0.19 0,0" />
          </g>
          <g
             id="g3555"
             transform="translate(365.2054,90.505)"
             style="fill:#ffffff">
            <path
               style="fill:#ffffff;fill-rule:nonzero"
               id="path3557"
               class="s0"
               d="m 0,0 c 0,-0.19 0.15,-0.34 0.34,-0.34 0.19,0 0.34,0.15 0.34,0.34 0,0.19 -0.15,0.34 -0.34,0.34 C 0.15,0.34 0,0.19 0,0" />
          </g>
          <g
             id="g3559"
             transform="translate(363.2545,90.5188)"
             style="fill:#ffffff">
            <path
               style="fill:#ffffff;fill-rule:nonzero"
               id="path3561"
               class="s0"
               d="m 0,0 c 0,-0.21 0.17,-0.38 0.38,-0.38 0.21,0 0.38,0.17 0.38,0.38 0,0.21 -0.17,0.38 -0.38,0.38 C 0.17,0.38 0,0.21 0,0" />
          </g>
          <g
             id="g3563"
             transform="translate(359.3934,90.505)"
             style="fill:#ffffff">
            <path
               style="fill:#ffffff;fill-rule:nonzero"
               id="path3565"
               class="s0"
               d="m 0,0 c 0,-0.24 0.19,-0.43 0.43,-0.43 0.24,0 0.43,0.19 0.43,0.43 0,0.24 -0.19,0.43 -0.43,0.43 C 0.19,0.43 0,0.24 0,0" />
          </g>
          <g
             id="g3567"
             transform="translate(358.3832,89.5636)"
             style="fill:#ffffff">
            <path
               style="fill:#ffffff;fill-rule:nonzero"
               id="path3569"
               class="s0"
               d="m 0,0 c 0,-0.27 0.22,-0.48 0.48,-0.48 0.27,0 0.48,0.22 0.48,0.48 0,0.27 -0.22,0.48 -0.48,0.48 C 0.22,0.48 0,0.27 0,0" />
          </g>
          <g
             id="g3571"
             transform="translate(360.3069,89.5636)"
             style="fill:#ffffff">
            <path
               style="fill:#ffffff;fill-rule:nonzero"
               id="path3573"
               class="s0"
               d="M 0,0 C 0,-0.25 0.2,-0.45 0.45,-0.45 0.7,-0.45 0.9,-0.25 0.9,0 0.9,0.25 0.7,0.45 0.45,0.45 0.2,0.45 0,0.25 0,0" />
          </g>
          <g
             id="g3575"
             transform="translate(359.3728,88.611)"
             style="fill:#ffffff">
            <path
               style="fill:#ffffff;fill-rule:nonzero"
               id="path3577"
               class="s0"
               d="M 0,0 C 0,-0.25 0.2,-0.45 0.45,-0.45 0.7,-0.45 0.9,-0.25 0.9,0 0.9,0.25 0.7,0.45 0.45,0.45 0.2,0.45 0,0.25 0,0" />
          </g>
          <g
             id="g3579"
             transform="translate(361.2963,88.611)"
             style="fill:#ffffff">
            <path
               style="fill:#ffffff;fill-rule:nonzero"
               id="path3581"
               class="s0"
               d="M 0,0 C 0,-0.25 0.2,-0.45 0.45,-0.45 0.7,-0.45 0.9,-0.25 0.9,0 0.9,0.25 0.7,0.45 0.45,0.45 0.2,0.45 0,0.25 0,0" />
          </g>
          <g
             id="g3583"
             transform="translate(363.1653,88.611)"
             style="fill:#ffffff">
            <path
               style="fill:#ffffff;fill-rule:nonzero"
               id="path3585"
               class="s0"
               d="M 0,0 C 0,-0.25 0.2,-0.45 0.45,-0.45 0.7,-0.45 0.9,-0.25 0.9,0 0.9,0.25 0.7,0.45 0.45,0.45 0.2,0.45 0,0.25 0,0" />
          </g>
          <g
             id="g3587"
             transform="translate(365.1073,88.611)"
             style="fill:#ffffff">
            <path
               style="fill:#ffffff;fill-rule:nonzero"
               id="path3589"
               class="s0"
               d="M 0,0 C 0,-0.25 0.2,-0.45 0.45,-0.45 0.7,-0.45 0.9,-0.25 0.9,0 0.9,0.25 0.7,0.45 0.45,0.45 0.2,0.45 0,0.25 0,0" />
          </g>
          <g
             id="g3591"
             transform="translate(366.9585,88.5779)"
             style="fill:#ffffff">
            <path
               style="fill:#ffffff;fill-rule:nonzero"
               id="path3593"
               class="s0"
               d="m 0,0 c 0,-0.28 0.23,-0.51 0.51,-0.51 0.28,0 0.51,0.23 0.51,0.51 0,0.28 -0.23,0.51 -0.51,0.51 C 0.23,0.51 0,0.28 0,0" />
          </g>
          <g
             id="g3595"
             transform="translate(362.291,89.5636)"
             style="fill:#ffffff">
            <path
               style="fill:#ffffff;fill-rule:nonzero"
               id="path3597"
               class="s0"
               d="M 0,0 C 0,-0.22 0.18,-0.4 0.4,-0.4 0.62,-0.4 0.8,-0.22 0.8,0 0.8,0.22 0.62,0.4 0.4,0.4 0.18,0.4 0,0.22 0,0" />
          </g>
          <g
             id="g3599"
             transform="translate(364.1734,89.5636)"
             style="fill:#ffffff">
            <path
               style="fill:#ffffff;fill-rule:nonzero"
               id="path3601"
               class="s0"
               d="M 0,0 C 0,-0.22 0.18,-0.4 0.4,-0.4 0.62,-0.4 0.8,-0.22 0.8,0 0.8,0.22 0.62,0.4 0.4,0.4 0.18,0.4 0,0.22 0,0" />
          </g>
          <g
             id="g3603"
             transform="translate(366.111,89.5418)"
             style="fill:#ffffff">
            <path
               style="fill:#ffffff;fill-rule:nonzero"
               id="path3605"
               class="s0"
               d="M 0,0 C 0,-0.22 0.18,-0.4 0.4,-0.4 0.62,-0.4 0.8,-0.22 0.8,0 0.8,0.22 0.62,0.4 0.4,0.4 0.18,0.4 0,0.22 0,0" />
          </g>
          <g
             id="g3607"
             transform="translate(367.9468,89.5418)"
             style="fill:#ffffff">
            <path
               style="fill:#ffffff;fill-rule:nonzero"
               id="path3609"
               class="s0"
               d="m 0,0 c 0,-0.25 0.21,-0.46 0.46,-0.46 0.25,0 0.46,0.21 0.46,0.46 0,0.25 -0.2,0.46 -0.46,0.46 C 0.21,0.46 0,0.25 0,0" />
          </g>
          <g
             id="g3611"
             transform="translate(369.857,89.5418)"
             style="fill:#ffffff">
            <path
               style="fill:#ffffff;fill-rule:nonzero"
               id="path3613"
               class="s0"
               d="m 0,0 c 0,-0.25 0.21,-0.46 0.46,-0.46 0.25,0 0.46,0.21 0.46,0.46 0,0.25 -0.2,0.46 -0.46,0.46 C 0.21,0.46 0,0.25 0,0" />
          </g>
          <g
             id="g3615"
             transform="translate(358.359,87.6483)"
             style="fill:#ffffff">
            <path
               style="fill:#ffffff;fill-rule:nonzero"
               id="path3617"
               class="s0"
               d="m 0,0 c 0,-0.29 0.23,-0.52 0.52,-0.52 0.29,0 0.52,0.23 0.52,0.52 0,0.29 -0.23,0.52 -0.52,0.52 C 0.23,0.52 0,0.29 0,0" />
          </g>
          <g
             id="g3619"
             transform="translate(360.283,87.6483)"
             style="fill:#ffffff">
            <path
               style="fill:#ffffff;fill-rule:nonzero"
               id="path3621"
               class="s0"
               d="m 0,0 c 0,-0.29 0.23,-0.52 0.52,-0.52 0.29,0 0.52,0.23 0.52,0.52 0,0.29 -0.23,0.52 -0.52,0.52 C 0.23,0.52 0,0.29 0,0" />
          </g>
          <g
             id="g3623"
             transform="translate(362.1792,87.6483)"
             style="fill:#ffffff">
            <path
               style="fill:#ffffff;fill-rule:nonzero"
               id="path3625"
               class="s0"
               d="m 0,0 c 0,-0.29 0.23,-0.52 0.52,-0.52 0.29,0 0.52,0.23 0.52,0.52 0,0.29 -0.23,0.52 -0.52,0.52 C 0.23,0.52 0,0.29 0,0" />
          </g>
          <g
             id="g3627"
             transform="translate(357.4419,90.5185)"
             style="fill:#ffffff">
            <path
               style="fill:#ffffff;fill-rule:nonzero"
               id="path3629"
               class="s0"
               d="m 0,0 c 0,-0.26 0.21,-0.47 0.47,-0.47 0.26,0 0.47,0.21 0.47,0.47 0,0.26 -0.21,0.47 -0.47,0.47 C 0.21,0.47 0,0.26 0,0" />
          </g>
          <g
             id="g3631"
             transform="translate(361.3238,90.5256)"
             style="fill:#ffffff">
            <path
               style="fill:#ffffff;fill-rule:nonzero"
               id="path3633"
               class="s0"
               d="M 0,0 C 0,-0.22 0.18,-0.4 0.4,-0.4 0.62,-0.4 0.8,-0.22 0.8,0 0.8,0.22 0.62,0.4 0.4,0.4 0.18,0.4 0,0.22 0,0" />
          </g>
          <g
             id="g3635"
             transform="translate(353.7281,94.2987)"
             style="fill:#ffffff">
            <path
               style="fill:#ffffff;fill-rule:nonzero"
               id="path3637"
               class="s0"
               d="m 0,0 c 0,-0.22 0.18,-0.41 0.41,-0.41 0.23,0 0.41,0.18 0.41,0.41 0,0.23 -0.18,0.41 -0.41,0.41 C 0.18,0.41 0,0.23 0,0" />
          </g>
          <g
             id="g3639"
             transform="translate(355.6143,94.2987)"
             style="fill:#ffffff">
            <path
               style="fill:#ffffff;fill-rule:nonzero"
               id="path3641"
               class="s0"
               d="m 0,0 c 0,-0.22 0.18,-0.41 0.41,-0.41 0.23,0 0.41,0.18 0.41,0.41 0,0.23 -0.18,0.41 -0.41,0.41 C 0.18,0.41 0,0.23 0,0" />
          </g>
          <g
             id="g3643"
             transform="translate(365.0913,87.7339)"
             style="fill:#ffffff">
            <path
               style="fill:#ffffff;fill-rule:nonzero"
               id="path3645"
               class="s0"
               d="m 0,0 c 0,0.22 -0.18,0.41 -0.4,0.41 l -0.17,0 C -0.8,0.41 -0.98,0.22 -0.98,0 l 0,-0.17 c 0,-0.22 0.18,-0.4 0.41,-0.4 l 0.42,0 C -0.07,-0.58 0,-0.51 0,-0.42 L 0,0 Z" />
          </g>
          <g
             id="g3647"
             transform="translate(357.4565,88.4637)"
             style="fill:#ffffff">
            <path
               style="fill:#ffffff;fill-rule:nonzero"
               id="path3649"
               class="s0"
               d="m 0,0 c 0,-0.17 0.14,-0.31 0.31,-0.31 l 0.31,0 c 0.17,0 0.31,0.14 0.31,0.31 l 0,0.31 c 0,0.17 -0.14,0.31 -0.31,0.31 l -0.31,0 C 0.14,0.62 0,0.48 0,0.31 L 0,0 Z" />
          </g>
          <g
             id="g3651"
             transform="translate(355.5526,88.3547)"
             style="fill:#ffffff">
            <path
               style="fill:#ffffff;fill-rule:nonzero"
               id="path3653"
               class="s0"
               d="m 0,0 c 0,-0.11 0.09,-0.2 0.2,-0.2 l 0.53,0 c 0.11,0 0.2,0.09 0.2,0.2 l 0,0.53 c 0,0.11 -0.09,0.2 -0.2,0.2 l -0.53,0 C 0.09,0.73 0,0.64 0,0.53 L 0,0 Z" />
          </g>
          <g
             id="g3655"
             transform="translate(356.4875,87.3772)"
             style="fill:#ffffff">
            <path
               style="fill:#ffffff;fill-rule:nonzero"
               id="path3657"
               class="s0"
               d="m 0,0 c 0,-0.12 0.1,-0.21 0.21,-0.21 l 0.56,0 c 0.12,0 0.21,0.1 0.21,0.21 l 0,0.56 c 0,0.12 -0.1,0.22 -0.21,0.22 l -0.56,0 C 0.1,0.78 0,0.68 0,0.56 L 0,0 Z" />
          </g>
          <g
             id="g3659"
             transform="translate(353.6543,90.282)"
             style="fill:#ffffff">
            <path
               style="fill:#ffffff;fill-rule:nonzero"
               id="path3661"
               class="s0"
               d="m 0,0 c 0,-0.13 0.11,-0.23 0.23,-0.23 l 0.47,0 c 0.13,0 0.23,0.11 0.23,0.23 l 0,0.47 C 0.93,0.6 0.83,0.7 0.7,0.7 l -0.47,0 C 0.11,0.7 0,0.6 0,0.47 L 0,0 Z" />
          </g>
          <g
             id="g3663"
             transform="translate(350.8376,91.2352)"
             style="fill:#ffffff">
            <path
               style="fill:#ffffff;fill-rule:nonzero"
               id="path3665"
               class="s0"
               d="m 0,0 c 0,-0.13 0.11,-0.23 0.23,-0.23 l 0.47,0 c 0.13,0 0.23,0.11 0.23,0.23 l 0,0.47 C 0.93,0.6 0.83,0.7 0.7,0.7 l -0.47,0 C 0.11,0.7 0,0.6 0,0.47 L 0,0 Z" />
          </g>
          <g
             id="g3667"
             transform="translate(355.5564,90.4224)"
             style="fill:#ffffff">
            <path
               style="fill:#ffffff;fill-rule:nonzero"
               id="path3669"
               class="s0"
               d="m 0,0 c 0,-0.21 0.17,-0.37 0.37,-0.37 l 0.19,0 c 0.21,0 0.37,0.17 0.37,0.37 l 0,0.19 c 0,0.2 -0.16,0.37 -0.37,0.37 l -0.19,0 C 0.17,0.56 0,0.39 0,0.19 L 0,0 Z" />
          </g>
          <g
             id="g3671"
             transform="translate(352.7017,91.2872)"
             style="fill:#ffffff">
            <path
               style="fill:#ffffff;fill-rule:nonzero"
               id="path3673"
               class="s0"
               d="m 0,0 c 0,-0.15 0.13,-0.28 0.28,-0.28 l 0.37,0 c 0.15,0 0.28,0.13 0.28,0.28 l 0,0.37 c 0,0.15 -0.13,0.28 -0.28,0.28 l -0.37,0 C 0.13,0.65 0,0.53 0,0.37 L 0,0 Z" />
          </g>
          <g
             id="g3675"
             transform="translate(356.5055,89.4032)"
             style="fill:#ffffff">
            <path
               style="fill:#ffffff;fill-rule:nonzero"
               id="path3677"
               class="s0"
               d="m 0,0 c 0,-0.17 0.14,-0.31 0.31,-0.31 l 0.31,0 c 0.17,0 0.31,0.14 0.31,0.31 l 0,0.33 c 0,0.17 -0.14,0.31 -0.31,0.31 l -0.31,0 C 0.14,0.64 0,0.5 0,0.33 L 0,0 Z" />
          </g>
          <g
             id="g3679"
             transform="translate(354.7719,90.0446)"
             style="fill:#ffffff">
            <path
               style="fill:#ffffff;fill-rule:nonzero"
               id="path3681"
               class="s0"
               d="m 0,0 c -0.09,0 -0.16,-0.07 -0.16,-0.16 l 0,-0.61 c 0,-0.09 0.07,-0.16 0.16,-0.16 l 0.61,0 c 0.09,0 0.16,0.07 0.16,0.16 l 0,0.61 C 0.77,-0.07 0.7,0 0.61,0 L 0,0 Z" />
          </g>
          <g
             id="g3683"
             transform="translate(369.465,89.0997)"
             style="fill:#ffffff">
            <path
               style="fill:#ffffff;fill-rule:nonzero"
               id="path3685"
               class="s0"
               d="m 0,0 -0.19,0 c -0.2,0 -0.37,-0.17 -0.37,-0.37 l 0,-0.37 c 0,-0.07 0.02,-0.14 0.06,-0.2 l 0.81,0 c 0.04,0.06 0.07,0.13 0.07,0.21 l 0,0.36 C 0.37,-0.17 0.21,0 0,0" />
          </g>
          <g
             id="g3687"
             transform="translate(374.7655,92.4062)"
             style="fill:#ffffff">
            <path
               style="fill:#ffffff;fill-rule:nonzero"
               id="path3689"
               class="s0"
               d="M 0,0 C 0,-0.18 0.14,-0.32 0.32,-0.32 0.5,-0.32 0.64,-0.18 0.64,0 0.64,0.18 0.5,0.32 0.32,0.32 0.14,0.32 0,0.18 0,0" />
          </g>
          <g
             id="g3691"
             transform="translate(380.3995,94.2751)"
             style="fill:#ffffff">
            <path
               style="fill:#ffffff;fill-rule:nonzero"
               id="path3693"
               class="s0"
               d="m 0,0 c 0,-0.21 0.17,-0.37 0.38,-0.37 0.21,0 0.37,0.17 0.37,0.38 0,0.21 -0.17,0.38 -0.37,0.38 C 0.17,0.38 0,0.21 0,0" />
          </g>
          <g
             id="g3695"
             transform="translate(373.8106,91.4626)"
             style="fill:#ffffff">
            <path
               style="fill:#ffffff;fill-rule:nonzero"
               id="path3697"
               class="s0"
               d="M 0,0 C 0,-0.18 0.14,-0.32 0.32,-0.32 0.5,-0.32 0.64,-0.18 0.64,0 0.64,0.18 0.5,0.32 0.32,0.32 0.14,0.32 0,0.18 0,0" />
          </g>
          <g
             id="g3699"
             transform="translate(378.6313,94.2841)"
             style="fill:#ffffff">
            <path
               style="fill:#ffffff;fill-rule:nonzero"
               id="path3701"
               class="s0"
               d="m 0,0 c 0,-0.15 0.12,-0.26 0.27,-0.26 0.15,0 0.26,0.12 0.26,0.27 0,0.15 -0.12,0.27 -0.26,0.27 C 0.12,0.27 0,0.15 0,0" />
          </g>
          <g
             id="g3703"
             transform="translate(376.8175,94.2934)"
             style="fill:#ffffff">
            <path
               style="fill:#ffffff;fill-rule:nonzero"
               id="path3705"
               class="s0"
               d="m 0,0 c 0,-0.09 0.07,-0.15 0.15,-0.15 0.09,0 0.16,0.06 0.16,0.15 0,0.09 -0.07,0.16 -0.16,0.16 C 0.07,0.16 0,0.09 0,0" />
          </g>
          <g
             id="g3707"
             transform="translate(374.9372,94.2934)"
             style="fill:#ffffff">
            <path
               style="fill:#ffffff;fill-rule:nonzero"
               id="path3709"
               class="s0"
               d="m 0,0 c 0,-0.07 0.06,-0.12 0.13,-0.12 0.06,0 0.12,0.05 0.12,0.12 0,0.07 -0.06,0.13 -0.12,0.13 C 0.06,0.13 0,0.07 0,0" />
          </g>
          <g
             id="g3711"
             transform="translate(373.8204,93.3681)"
             style="fill:#ffffff">
            <path
               style="fill:#ffffff;fill-rule:nonzero"
               id="path3713"
               class="s0"
               d="M 0,0 C 0,-0.17 0.14,-0.3 0.3,-0.3 0.47,-0.3 0.6,-0.17 0.6,0 0.6,0.17 0.47,0.3 0.3,0.3 0.14,0.3 0,0.17 0,0" />
          </g>
          <g
             id="g3715"
             transform="translate(371.9154,93.3681)"
             style="fill:#ffffff">
            <path
               style="fill:#ffffff;fill-rule:nonzero"
               id="path3717"
               class="s0"
               d="M 0,0 C 0,-0.17 0.14,-0.3 0.3,-0.3 0.47,-0.3 0.6,-0.17 0.6,0 0.6,0.17 0.47,0.3 0.3,0.3 0.14,0.3 0,0.17 0,0" />
          </g>
          <g
             id="g3719"
             transform="translate(371.9226,91.4626)"
             style="fill:#ffffff">
            <path
               style="fill:#ffffff;fill-rule:nonzero"
               id="path3721"
               class="s0"
               d="M 0,0 C 0,-0.17 0.14,-0.3 0.3,-0.3 0.47,-0.3 0.6,-0.16 0.6,0 0.6,0.17 0.47,0.3 0.3,0.3 0.14,0.3 0,0.17 0,0" />
          </g>
          <g
             id="g3723"
             transform="translate(372.8428,92.4072)"
             style="fill:#ffffff">
            <path
               style="fill:#ffffff;fill-rule:nonzero"
               id="path3725"
               class="s0"
               d="M 0,0 C 0,-0.17 0.14,-0.3 0.3,-0.3 0.47,-0.3 0.6,-0.17 0.6,0 0.6,0.17 0.47,0.3 0.3,0.3 0.14,0.3 0,0.17 0,0" />
          </g>
          <g
             id="g3727"
             transform="translate(375.6703,91.4541)"
             style="fill:#ffffff">
            <path
               style="fill:#ffffff;fill-rule:nonzero"
               id="path3729"
               class="s0"
               d="m 0,0 c 0,-0.2 0.16,-0.37 0.37,-0.37 0.2,0 0.37,0.16 0.37,0.37 0,0.2 -0.16,0.37 -0.37,0.37 C 0.16,0.37 0,0.2 0,0" />
          </g>
          <g
             id="g3731"
             transform="translate(376.6227,92.4157)"
             style="fill:#ffffff">
            <path
               style="fill:#ffffff;fill-rule:nonzero"
               id="path3733"
               class="s0"
               d="m 0,0 c 0,-0.2 0.16,-0.37 0.37,-0.37 0.2,0 0.37,0.16 0.37,0.37 0,0.2 -0.16,0.37 -0.37,0.37 C 0.16,0.37 0,0.2 0,0" />
          </g>
          <g
             id="g3735"
             transform="translate(375.7161,93.3503)"
             style="fill:#ffffff">
            <path
               style="fill:#ffffff;fill-rule:nonzero"
               id="path3737"
               class="s0"
               d="m 0,0 c 0,-0.17 0.14,-0.31 0.31,-0.31 0.17,0 0.31,0.14 0.31,0.31 0,0.17 -0.14,0.31 -0.31,0.31 C 0.14,0.31 0,0.17 0,0" />
          </g>
          <g
             id="g3739"
             transform="translate(377.566,93.3503)"
             style="fill:#ffffff">
            <path
               style="fill:#ffffff;fill-rule:nonzero"
               id="path3741"
               class="s0"
               d="m 0,0 c 0,-0.21 0.17,-0.37 0.38,-0.37 0.21,0 0.38,0.17 0.38,0.38 0,0.21 -0.17,0.38 -0.37,0.38 C 0.17,0.38 0,0.21 0,0" />
          </g>
          <g
             id="g3743"
             transform="translate(378.4688,92.4022)"
             style="fill:#ffffff">
            <path
               style="fill:#ffffff;fill-rule:nonzero"
               id="path3745"
               class="s0"
               d="m 0,0 c 0,-0.24 0.2,-0.43 0.44,-0.43 0.24,0 0.43,0.2 0.43,0.44 0,0.24 -0.19,0.44 -0.43,0.44 C 0.2,0.44 0,0.24 0,0" />
          </g>
          <g
             id="g3747"
             transform="translate(377.5067,91.4493)"
             style="fill:#ffffff">
            <path
               style="fill:#ffffff;fill-rule:nonzero"
               id="path3749"
               class="s0"
               d="m 0,0 c 0,-0.24 0.2,-0.43 0.44,-0.43 0.24,0 0.43,0.19 0.43,0.43 0,0.24 -0.19,0.44 -0.43,0.44 C 0.2,0.44 0,0.24 0,0" />
          </g>
          <g
             id="g3751"
             transform="translate(376.5448,90.4784)"
             style="fill:#ffffff">
            <path
               style="fill:#ffffff;fill-rule:nonzero"
               id="path3753"
               class="s0"
               d="m 0,0 c 0,-0.24 0.2,-0.43 0.44,-0.43 0.24,0 0.43,0.19 0.43,0.43 0,0.24 -0.19,0.44 -0.43,0.44 C 0.2,0.44 0,0.24 0,0" />
          </g>
          <g
             id="g3755"
             transform="translate(374.6989,90.4646)"
             style="fill:#ffffff">
            <path
               style="fill:#ffffff;fill-rule:nonzero"
               id="path3757"
               class="s0"
               d="M 0,0 C 0,-0.21 0.17,-0.38 0.39,-0.38 0.6,-0.38 0.77,-0.21 0.77,0 0.77,0.21 0.6,0.38 0.39,0.38 0.17,0.38 0,0.21 0,0" />
          </g>
          <g
             id="g3759"
             transform="translate(379.3708,93.3503)"
             style="fill:#ffffff">
            <path
               style="fill:#ffffff;fill-rule:nonzero"
               id="path3761"
               class="s0"
               d="M 0,0 C 0,-0.25 0.2,-0.45 0.45,-0.45 0.7,-0.45 0.9,-0.25 0.9,0 0.9,0.25 0.7,0.45 0.45,0.45 0.2,0.45 0,0.25 0,0" />
          </g>
          <g
             id="g3763"
             transform="translate(389.8143,94.2939)"
             style="fill:#ffffff">
            <path
               style="fill:#ffffff;fill-rule:nonzero"
               id="path3765"
               class="s0"
               d="M 0,0 C 0,-0.25 0.2,-0.45 0.45,-0.45 0.7,-0.45 0.9,-0.25 0.9,0 0.9,0.25 0.7,0.45 0.45,0.45 0.2,0.45 0,0.25 0,0" />
          </g>
          <g
             id="g3767"
             transform="translate(391.8095,94.2939)"
             style="fill:#ffffff">
            <path
               style="fill:#ffffff;fill-rule:nonzero"
               id="path3769"
               class="s0"
               d="M 0,0 C 0,-0.22 0.18,-0.39 0.39,-0.39 0.61,-0.39 0.78,-0.21 0.78,0 0.78,0.22 0.6,0.39 0.39,0.39 0.18,0.39 0,0.22 0,0" />
          </g>
          <g
             id="g3771"
             transform="translate(391.9972,92.4022)"
             style="fill:#ffffff">
            <path
               style="fill:#ffffff;fill-rule:nonzero"
               id="path3773"
               class="s0"
               d="m 0,0 c 0,-0.25 0.21,-0.46 0.46,-0.46 0.25,0 0.46,0.21 0.46,0.46 0,0.25 -0.21,0.46 -0.46,0.46 C 0.21,0.46 0,0.25 0,0" />
          </g>
          <g
             id="g3775"
             transform="translate(390.9479,93.3503)"
             style="fill:#ffffff">
            <path
               style="fill:#ffffff;fill-rule:nonzero"
               id="path3777"
               class="s0"
               d="m 0,0 c 0,-0.25 0.21,-0.46 0.46,-0.46 0.25,0 0.46,0.21 0.46,0.46 0,0.25 -0.2,0.46 -0.46,0.46 C 0.21,0.46 0,0.25 0,0" />
          </g>
          <g
             id="g3779"
             transform="translate(388.8514,93.3503)"
             style="fill:#ffffff">
            <path
               style="fill:#ffffff;fill-rule:nonzero"
               id="path3781"
               class="s0"
               d="m 0,0 c 0,-0.27 0.22,-0.49 0.49,-0.49 0.27,0 0.49,0.22 0.49,0.49 0,0.27 -0.22,0.49 -0.49,0.49 C 0.22,0.49 0,0.27 0,0" />
          </g>
          <g
             id="g3783"
             transform="translate(387.9132,94.2989)"
             style="fill:#ffffff">
            <path
               style="fill:#ffffff;fill-rule:nonzero"
               id="path3785"
               class="s0"
               d="m 0,0 c 0,-0.26 0.21,-0.47 0.47,-0.47 0.26,0 0.47,0.21 0.47,0.47 0,0.26 -0.21,0.47 -0.47,0.47 C 0.21,0.47 0,0.26 0,0" />
          </g>
          <g
             id="g3787"
             transform="translate(382.2546,94.2778)"
             style="fill:#ffffff">
            <path
               style="fill:#ffffff;fill-rule:nonzero"
               id="path3789"
               class="s0"
               d="m 0,0 c 0,-0.24 0.2,-0.44 0.44,-0.44 0.24,0 0.44,0.2 0.44,0.44 0,0.24 -0.2,0.44 -0.44,0.44 C 0.2,0.44 0,0.24 0,0" />
          </g>
          <g
             id="g3791"
             transform="translate(370.9407,90.4646)"
             style="fill:#ffffff">
            <path
               style="fill:#ffffff;fill-rule:nonzero"
               id="path3793"
               class="s0"
               d="M 0,0 C 0,-0.21 0.17,-0.38 0.38,-0.38 0.59,-0.38 0.77,-0.21 0.77,0 0.77,0.21 0.6,0.38 0.39,0.38 0.17,0.38 0,0.21 0,0" />
          </g>
          <g
             id="g3795"
             transform="translate(387.9117,92.1316)"
             style="fill:#ffffff">
            <path
               style="fill:#ffffff;fill-rule:nonzero"
               id="path3797"
               class="s0"
               d="m 0,0 c 0,-0.1 0.08,-0.19 0.19,-0.19 l 0.57,0 c 0.1,0 0.19,0.08 0.19,0.19 l 0,0.58 c 0,0.1 -0.08,0.19 -0.19,0.19 l -0.57,0 C 0.08,0.77 0,0.68 0,0.58 L 0,0 Z" />
          </g>
          <g
             id="g3799"
             transform="translate(386.9668,93.2391)"
             style="fill:#ffffff">
            <path
               style="fill:#ffffff;fill-rule:nonzero"
               id="path3801"
               class="s0"
               d="m 0,0 c 0,-0.21 0.17,-0.37 0.37,-0.37 l 0.2,0 c 0.21,0 0.37,0.17 0.37,0.37 l 0,0.2 c 0,0.21 -0.17,0.37 -0.37,0.37 l -0.2,0 C 0.17,0.57 0,0.41 0,0.2 L 0,0 Z" />
          </g>
          <g
             id="g3803"
             transform="translate(389.0552,91.318)"
             style="fill:#ffffff">
            <path
               style="fill:#ffffff;fill-rule:nonzero"
               id="path3805"
               class="s0"
               d="m 0,0 c 0,-0.19 0.15,-0.34 0.34,-0.34 l 0.26,0 c 0.19,0 0.34,0.15 0.34,0.34 l 0,0.26 C 0.94,0.45 0.79,0.6 0.6,0.6 l -0.26,0 C 0.15,0.61 0,0.45 0,0.26 L 0,0 Z" />
          </g>
          <g
             id="g3807"
             transform="translate(382.1782,93.5637)"
             style="fill:#ffffff">
            <path
               style="fill:#ffffff;fill-rule:nonzero"
               id="path3809"
               class="s0"
               d="m 0,0 c -0.08,0.16 -0.25,0.28 -0.44,0.28 -0.28,0 -0.5,-0.22 -0.5,-0.5 0,-0.18 0.1,-0.34 0.24,-0.42 l 0.52,0 c 0.08,0.05 0.14,0.12 0.18,0.2 L 0,0 Z" />
          </g>
          <g
             id="g3811"
             transform="translate(381.2369,92.6223)"
             style="fill:#ffffff">
            <path
               style="fill:#ffffff;fill-rule:nonzero"
               id="path3813"
               class="s0"
               d="m 0,0 c -0.08,0.16 -0.25,0.28 -0.44,0.28 -0.28,0 -0.5,-0.22 -0.5,-0.5 0,-0.21 0.12,-0.38 0.3,-0.46 l 0.4,0 c 0.11,0.05 0.19,0.13 0.25,0.24 L 0,0 Z" />
          </g>
          <g
             id="g3815"
             transform="translate(380.0738,91.0078)"
             style="fill:#ffffff">
            <path
               style="fill:#ffffff;fill-rule:nonzero"
               id="path3817"
               class="s0"
               d="m 0,0 c 0.1,0.05 0.18,0.14 0.22,0.24 l 0,0.39 c -0.08,0.18 -0.25,0.3 -0.46,0.3 -0.28,0 -0.5,-0.22 -0.5,-0.5 0,-0.19 0.11,-0.35 0.26,-0.44 L 0,0 Z" />
          </g>
          <g
             id="g3819"
             transform="translate(384.3482,93.8523)"
             style="fill:#ffffff">
            <path
               style="fill:#ffffff;fill-rule:nonzero"
               id="path3821"
               class="s0"
               d="M 0,0 0.5,0 C 0.65,0.09 0.74,0.24 0.74,0.43 0.74,0.7 0.52,0.92 0.25,0.92 -0.02,0.92 -0.25,0.7 -0.25,0.43 -0.25,0.24 -0.15,0.09 0,0" />
          </g>
          <g
             id="g3823"
             transform="translate(386.2239,93.8523)"
             style="fill:#ffffff">
            <path
               style="fill:#ffffff;fill-rule:nonzero"
               id="path3825"
               class="s0"
               d="M 0,0 0.5,0 C 0.65,0.09 0.74,0.24 0.74,0.43 0.74,0.7 0.52,0.92 0.25,0.92 -0.02,0.92 -0.25,0.7 -0.25,0.43 -0.25,0.24 -0.15,0.09 0,0" />
          </g>
          <g
             id="g3827"
             transform="translate(390.4906,92.895)"
             style="fill:#ffffff">
            <path
               style="fill:#ffffff;fill-rule:nonzero"
               id="path3829"
               class="s0"
               d="m 0,0 c -0.27,0 -0.49,-0.22 -0.49,-0.49 0,-0.19 0.12,-0.36 0.28,-0.44 l 0.41,0 c 0.17,0.08 0.28,0.24 0.28,0.44 C 0.49,-0.22 0.27,0 0,0" />
          </g>
          <g
             id="g3831"
             transform="translate(391.7095,90.9804)"
             style="fill:#ffffff">
            <path
               style="fill:#ffffff;fill-rule:nonzero"
               id="path3833"
               class="s0"
               d="m 0,0 c 0.18,0.08 0.3,0.26 0.3,0.46 0,0.28 -0.22,0.5 -0.5,0.5 -0.21,0 -0.39,-0.13 -0.47,-0.32 l 0,-0.38 C -0.62,0.15 -0.52,0.05 -0.4,0 L 0,0 Z" />
          </g>
          <g
             id="g3835"
             transform="translate(385.7293,93.8134)"
             style="fill:#ffffff">
            <path
               style="fill:#ffffff;fill-rule:nonzero"
               id="path3837"
               class="s0"
               d="m 0,0 -0.39,0 c -0.15,0 -0.28,-0.13 -0.28,-0.28 l 0,-0.39 c 0,-0.09 0.05,-0.18 0.12,-0.23 l 0.71,0 c 0.07,0.05 0.12,0.13 0.12,0.23 l 0,0.39 C 0.28,-0.13 0.15,0 0,0" />
          </g>
          <g
             id="g3839"
             transform="translate(383.8241,93.8134)"
             style="fill:#ffffff">
            <path
               style="fill:#ffffff;fill-rule:nonzero"
               id="path3841"
               class="s0"
               d="m 0,0 -0.39,0 c -0.15,0 -0.28,-0.13 -0.28,-0.28 l 0,-0.39 c 0,-0.09 0.05,-0.18 0.12,-0.23 l 0.71,0 c 0.07,0.05 0.12,0.13 0.12,0.23 l 0,0.39 C 0.28,-0.13 0.15,0 0,0" />
          </g>
          <g
             id="g3843"
             transform="translate(372.7554,89.5287)"
             style="fill:#ffffff">
            <path
               style="fill:#ffffff;fill-rule:nonzero"
               id="path3845"
               class="s0"
               d="m 0,0 c 0,0.27 -0.21,0.48 -0.48,0.48 -0.26,0 -0.48,-0.21 -0.48,-0.48 0,-0.16 0.08,-0.3 0.2,-0.38 l 0.57,0 C -0.08,-0.3 0,-0.16 0,0" />
          </g>
          <g
             id="g3847"
             transform="translate(374.593,89.5287)"
             style="fill:#ffffff">
            <path
               style="fill:#ffffff;fill-rule:nonzero"
               id="path3849"
               class="s0"
               d="m 0,0 c 0,0.27 -0.21,0.48 -0.48,0.48 -0.26,0 -0.48,-0.21 -0.48,-0.48 0,-0.16 0.08,-0.3 0.2,-0.38 l 0.57,0 C -0.08,-0.3 0,-0.16 0,0" />
          </g>
          <g
             id="g3851"
             transform="translate(378.3994,89.2832)"
             style="fill:#ffffff">
            <path
               style="fill:#ffffff;fill-rule:nonzero"
               id="path3853"
               class="s0"
               d="m 0,0 0,0.47 c -0.09,0.17 -0.26,0.28 -0.46,0.28 -0.28,0 -0.52,-0.23 -0.52,-0.52 0,-0.15 0.06,-0.28 0.16,-0.37 l 0.7,0 C -0.07,-0.1 -0.03,-0.05 0,0" />
          </g>
          <g
             id="g3855"
             transform="translate(376.5338,89.5117)"
             style="fill:#ffffff">
            <path
               style="fill:#ffffff;fill-rule:nonzero"
               id="path3857"
               class="s0"
               d="m 0,0 c 0,0.27 -0.22,0.5 -0.5,0.5 -0.27,0 -0.49,-0.23 -0.49,-0.5 0,-0.15 0.07,-0.28 0.17,-0.37 l 0.66,0 C -0.06,-0.28 0,-0.15 0,0" />
          </g>
          <g
             id="g3859"
             transform="translate(346.4372,94.2925)"
             style="fill:#ffffff">
            <path
               style="fill:#ffffff;fill-rule:nonzero"
               id="path3861"
               class="s0"
               d="m 0,0 c 0,-0.12 0.1,-0.23 0.23,-0.23 0.13,0 0.23,0.1 0.23,0.23 0,0.13 -0.1,0.23 -0.23,0.23 C 0.1,0.23 0,0.13 0,0" />
          </g>
          <g
             id="g3863"
             transform="translate(348.1064,94.2925)"
             style="fill:#ffffff">
            <path
               style="fill:#ffffff;fill-rule:nonzero"
               id="path3865"
               class="s0"
               d="M 0,0 C 0,-0.17 0.14,-0.32 0.32,-0.32 0.5,-0.32 0.64,-0.18 0.64,0 0.64,0.18 0.5,0.32 0.32,0.32 0.14,0.32 0,0.18 0,0" />
          </g>
          <g
             id="g3867"
             transform="translate(349.9618,94.2925)"
             style="fill:#ffffff">
            <path
               style="fill:#ffffff;fill-rule:nonzero"
               id="path3869"
               class="s0"
               d="m 0,0 c 0,-0.21 0.17,-0.38 0.38,-0.38 0.21,0 0.38,0.17 0.38,0.38 0,0.21 -0.17,0.38 -0.38,0.38 C 0.17,0.38 0,0.21 0,0" />
          </g>
          <g
             id="g3871"
             transform="translate(348.9511,93.3573)"
             style="fill:#ffffff">
            <path
               style="fill:#ffffff;fill-rule:nonzero"
               id="path3873"
               class="s0"
               d="m 0,0 c 0,-0.23 0.19,-0.42 0.42,-0.42 0.23,0 0.42,0.19 0.42,0.42 0,0.23 -0.19,0.42 -0.42,0.42 C 0.19,0.42 0,0.23 0,0" />
          </g>
          <g
             id="g3875"
             transform="translate(346.998,93.3573)"
             style="fill:#ffffff">
            <path
               style="fill:#ffffff;fill-rule:nonzero"
               id="path3877"
               class="s0"
               d="m 0,0 c 0,-0.21 0.17,-0.38 0.38,-0.38 0.21,0 0.38,0.17 0.38,0.38 0,0.21 -0.17,0.38 -0.38,0.38 C 0.17,0.38 0,0.21 0,0" />
          </g>
          <g
             id="g3879"
             transform="translate(349.849,92.4235)"
             style="fill:#ffffff">
            <path
               style="fill:#ffffff;fill-rule:nonzero"
               id="path3881"
               class="s0"
               d="m 0,0 c 0,-0.27 0.22,-0.49 0.49,-0.49 0.27,0 0.49,0.22 0.49,0.49 0,0.27 -0.22,0.49 -0.49,0.49 C 0.22,0.49 0,0.27 0,0" />
          </g>
          <g
             id="g3883"
             transform="translate(347.8372,92.4235)"
             style="fill:#ffffff">
            <path
               style="fill:#ffffff;fill-rule:nonzero"
               id="path3885"
               class="s0"
               d="m 0,0 c 0,-0.26 0.21,-0.47 0.47,-0.47 0.26,0 0.47,0.21 0.47,0.47 0,0.26 -0.21,0.47 -0.47,0.47 C 0.21,0.47 0,0.26 0,0" />
          </g>
          <g
             id="g3887"
             transform="translate(393.7479,94.2818)"
             style="fill:#ffffff">
            <path
               style="fill:#ffffff;fill-rule:nonzero"
               id="path3889"
               class="s0"
               d="m 0,0 c 0,-0.18 0.15,-0.33 0.33,-0.33 0.18,0 0.33,0.15 0.33,0.33 0,0.18 -0.15,0.33 -0.33,0.33 C 0.15,0.33 0,0.18 0,0" />
          </g>
          <g
             id="g3891"
             transform="translate(392.9832,93.3387)"
             style="fill:#ffffff">
            <path
               style="fill:#ffffff;fill-rule:nonzero"
               id="path3893"
               class="s0"
               d="m 0,0 c 0,-0.23 0.19,-0.41 0.41,-0.41 0.23,0 0.41,0.18 0.41,0.41 0,0.23 -0.18,0.41 -0.41,0.41 C 0.19,0.41 0,0.23 0,0" />
          </g>
          <g
             id="g3895"
             transform="translate(392.8976,91.4434)"
             style="fill:#ffffff">
            <path
               style="fill:#ffffff;fill-rule:nonzero"
               id="path3897"
               class="s0"
               d="m 0,0 c 0,-0.25 0.21,-0.46 0.46,-0.46 0.25,0 0.46,0.21 0.46,0.46 0,0.25 -0.21,0.46 -0.46,0.46 C 0.21,0.46 0,0.25 0,0" />
          </g>
          <g
             id="g3899"
             transform="translate(394.9452,93.3342)"
             style="fill:#ffffff">
            <path
               style="fill:#ffffff;fill-rule:nonzero"
               id="path3901"
               class="s0"
               d="m 0,0 c 0,-0.2 0.16,-0.36 0.36,-0.36 0.2,0 0.36,0.16 0.36,0.36 0,0.2 -0.16,0.36 -0.36,0.36 C 0.16,0.36 0,0.2 0,0" />
          </g>
          <g
             id="g3903"
             transform="translate(393.9713,92.4002)"
             style="fill:#ffffff">
            <path
               style="fill:#ffffff;fill-rule:nonzero"
               id="path3905"
               class="s0"
               d="m 0,0 c 0,-0.24 0.2,-0.43 0.44,-0.43 0.24,0 0.43,0.19 0.43,0.43 0,0.24 -0.19,0.44 -0.43,0.44 C 0.2,0.44 0,0.24 0,0" />
          </g>
          <g
             id="g3907"
             transform="translate(395.8089,94.2818)"
             style="fill:#ffffff">
            <path
               style="fill:#ffffff;fill-rule:nonzero"
               id="path3909"
               class="s0"
               d="m 0,0 c 0,-0.12 0.1,-0.23 0.23,-0.23 0.13,0 0.23,0.1 0.23,0.23 0,0.13 -0.1,0.23 -0.23,0.23 C 0.1,0.23 0,0.13 0,0" />
          </g>
          <g
             id="g3911"
             transform="translate(349.0195,91.0019)"
             style="fill:#ffffff">
            <path
               style="fill:#ffffff;fill-rule:nonzero"
               id="path3913"
               class="s0"
               d="m 0,0 0,0 0.65,0 c 0.08,0.06 0.14,0.16 0.14,0.28 l 0,0.31 c 0,0.19 -0.15,0.34 -0.34,0.34 l -0.25,0 c -0.19,0 -0.34,-0.15 -0.34,-0.34 l 0,-0.31 C -0.14,0.16 -0.09,0.06 0,0" />
          </g>
          <g
             id="g3915"
             transform="translate(348.8881,90.2779)"
             style="fill:#ffffff">
            <path
               style="fill:#ffffff;fill-rule:nonzero"
               id="path3917"
               class="s0"
               d="M 0,0 0,0.47 C 0,0.6 -0.1,0.7 -0.23,0.7 l -0.35,0 0.5,-0.88 C -0.03,-0.13 0,-0.07 0,0" />
          </g>
          <g
             id="g3919"
             transform="translate(368.382,86.2413)"
             style="fill:#ffffff">
            <path
               style="fill:#ffffff;fill-rule:nonzero"
               id="path3921"
               class="s0"
               d="m 0,0 c -0.27,0 -0.49,0.22 -0.49,0.49 0,0.27 0.22,0.49 0.49,0.49 0.27,0 0.49,-0.22 0.49,-0.49 C 0.49,0.22 0.27,0 0,0 m 0.14,-0.82 c -0.12,0 -0.22,0.1 -0.22,0.22 0,0.12 0.1,0.22 0.22,0.22 0.12,0 0.22,-0.1 0.22,-0.22 0,-0.12 -0.1,-0.22 -0.22,-0.22 M -0.44,-1.7 c -0.14,0 -0.26,0.12 -0.26,0.26 0,0.14 0.12,0.26 0.26,0.26 0.14,0 0.26,-0.11 0.26,-0.26 0,-0.14 -0.11,-0.26 -0.26,-0.26 m -0.71,-1 c -0.19,0 -0.35,0.16 -0.35,0.35 0,0.2 0.16,0.35 0.35,0.35 0.2,0 0.35,-0.16 0.35,-0.35 0,-0.19 -0.16,-0.35 -0.35,-0.35 m -0.77,-1.03 c -0.22,0 -0.39,0.18 -0.39,0.4 0,0.22 0.18,0.4 0.4,0.4 0.22,0 0.39,-0.18 0.39,-0.39 0,-0.22 -0.18,-0.39 -0.39,-0.39 m -0.03,-0.76 c -0.12,0 -0.21,0.09 -0.21,0.21 0,0.12 0.09,0.21 0.21,0.21 0.12,0 0.21,-0.09 0.21,-0.21 0,-0.12 -0.09,-0.21 -0.21,-0.21 m -0.6,-0.99 c -0.13,0 -0.24,0.11 -0.24,0.24 0,0.13 0.11,0.24 0.24,0.24 0.13,0 0.24,-0.11 0.24,-0.24 0,-0.13 -0.11,-0.24 -0.24,-0.24 m -0.61,-1.01 c -0.17,0 -0.31,0.14 -0.31,0.31 0,0.17 0.14,0.31 0.31,0.31 0.17,0 0.31,-0.14 0.31,-0.31 0,-0.17 -0.14,-0.31 -0.31,-0.31 m -0.53,-0.94 c -0.15,0 -0.27,0.12 -0.27,0.27 0,0.15 0.12,0.27 0.27,0.27 0.15,0 0.27,-0.12 0.27,-0.27 0,-0.15 -0.12,-0.27 -0.27,-0.27 M -4.21,-8.3 c -0.11,0 -0.21,0.09 -0.21,0.21 0,0.11 0.09,0.21 0.21,0.21 0.11,0 0.21,-0.09 0.21,-0.2 0,-0.11 -0.09,-0.21 -0.2,-0.21 m -0.52,1.83 c -0.17,0 -0.31,0.14 -0.31,0.31 0,0.17 0.14,0.31 0.31,0.31 0.17,0 0.31,-0.14 0.31,-0.31 0,-0.17 -0.14,-0.31 -0.31,-0.31 M -4.8,-9.22 c -0.08,0 -0.15,0.07 -0.15,0.15 0,0.09 0.07,0.15 0.15,0.15 0.09,0 0.15,-0.07 0.15,-0.15 0,-0.08 -0.07,-0.15 -0.15,-0.15 m 0.1,5.32 c 0.2,0 0.36,-0.16 0.36,-0.36 0,-0.2 -0.16,-0.36 -0.36,-0.36 -0.2,0 -0.36,0.16 -0.36,0.36 0,0.2 0.16,0.36 0.36,0.36 m -0.61,-4.41 c -0.13,0 -0.24,0.11 -0.24,0.24 0,0.13 0.11,0.24 0.24,0.24 0.13,0 0.24,-0.11 0.24,-0.24 0,-0.13 -0.11,-0.24 -0.24,-0.24 m -0.63,1.19 c 0,0.15 0.12,0.27 0.27,0.27 0.15,0 0.27,-0.12 0.27,-0.27 0,-0.15 -0.12,-0.27 -0.27,-0.27 -0.15,0 -0.27,0.12 -0.27,0.27 m -0.1,-2.08 c -0.1,0 -0.18,0.08 -0.18,0.18 0,0.1 0.08,0.18 0.18,0.18 0.1,0 0.18,-0.08 0.18,-0.18 0,-0.1 -0.08,-0.18 -0.18,-0.18 m -0.57,4.57 c -0.2,0 -0.36,0.16 -0.36,0.36 0,0.2 0.16,0.36 0.36,0.36 0.2,0 0.36,-0.16 0.36,-0.36 0,-0.2 -0.16,-0.36 -0.36,-0.36 M -6.62,-6.5 c -0.19,0 -0.34,0.16 -0.34,0.35 0,0.19 0.16,0.35 0.35,0.35 0.19,0 0.35,-0.15 0.35,-0.35 0,-0.19 -0.15,-0.34 -0.34,-0.34 M -6.68,-8.3 c -0.13,0 -0.24,0.11 -0.24,0.24 0,0.13 0.11,0.24 0.24,0.24 0.13,0 0.24,-0.11 0.24,-0.24 0,-0.13 -0.11,-0.24 -0.24,-0.24 m 0.09,6.34 c 0.22,0 0.4,-0.18 0.4,-0.4 0,-0.22 -0.18,-0.4 -0.4,-0.4 -0.22,0 -0.4,0.18 -0.4,0.4 0,0.22 0.18,0.4 0.4,0.4 m 0,1.98 c 0.25,0 0.46,-0.21 0.46,-0.46 0,-0.25 -0.21,-0.46 -0.46,-0.46 -0.25,0 -0.46,0.21 -0.46,0.46 0,0.25 0.21,0.46 0.46,0.46 m 1.31,-5.21 c 0,-0.19 -0.15,-0.35 -0.34,-0.35 -0.19,0 -0.34,0.16 -0.34,0.35 0,0.19 0.15,0.35 0.35,0.35 0.19,0 0.35,-0.15 0.35,-0.34 m -0.36,1.49 c -0.22,0 -0.39,0.18 -0.39,0.4 0,0.22 0.18,0.4 0.4,0.4 0.22,0 0.4,-0.18 0.4,-0.39 0,-0.22 -0.18,-0.39 -0.39,-0.39 m 0,2.73 c 0.23,0 0.42,-0.19 0.42,-0.42 0,-0.23 -0.19,-0.42 -0.42,-0.42 -0.23,0 -0.42,0.19 -0.42,0.42 0,0.23 0.19,0.42 0.42,0.42 m 1.36,-1.39 c 0,-0.22 -0.18,-0.4 -0.4,-0.4 -0.22,0 -0.4,0.18 -0.4,0.4 0,0.22 0.18,0.4 0.4,0.4 0.22,0 0.4,-0.18 0.4,-0.4 m -0.4,2.39 c 0.25,0 0.46,-0.21 0.46,-0.46 0,-0.25 -0.21,-0.46 -0.46,-0.46 -0.25,0 -0.46,0.21 -0.46,0.46 0,0.25 0.21,0.46 0.46,0.46 m 1.29,-5.21 c 0,-0.19 -0.15,-0.35 -0.34,-0.35 -0.19,0 -0.34,0.16 -0.34,0.35 0,0.19 0.15,0.35 0.35,0.35 0.19,0 0.35,-0.15 0.35,-0.34 m -0.34,1.49 c -0.22,0 -0.39,0.18 -0.39,0.4 0,0.22 0.18,0.4 0.4,0.4 0.22,0 0.4,-0.18 0.4,-0.39 0,-0.22 -0.18,-0.39 -0.39,-0.39 m 0,2.73 c 0.23,0 0.42,-0.19 0.42,-0.42 0,-0.23 -0.19,-0.42 -0.42,-0.42 -0.23,0 -0.42,0.19 -0.42,0.42 0,0.23 0.19,0.42 0.42,0.42 m 1.24,-3.28 c 0,-0.2 -0.16,-0.36 -0.36,-0.36 -0.2,0 -0.36,0.16 -0.36,0.36 0,0.2 0.16,0.36 0.36,0.36 0.2,0 0.36,-0.16 0.36,-0.36 m -0.31,1.49 c -0.22,0 -0.4,0.18 -0.4,0.4 0,0.22 0.18,0.4 0.4,0.4 0.22,0 0.4,-0.18 0.4,-0.4 0,-0.22 -0.18,-0.4 -0.4,-0.4 M -2.7,0.1 c 0.25,0 0.46,-0.21 0.46,-0.46 0,-0.25 -0.21,-0.46 -0.46,-0.46 -0.25,0 -0.46,0.21 -0.46,0.46 0,0.25 0.21,0.46 0.46,0.46 m 1.34,-1.42 c 0,-0.23 -0.19,-0.42 -0.42,-0.42 -0.23,0 -0.42,0.19 -0.42,0.42 0,0.23 0.19,0.42 0.42,0.42 0.23,0 0.42,-0.19 0.42,-0.42 m -0.39,2.4 c 0.27,0 0.49,-0.22 0.49,-0.49 C -1.39,0.22 -1.61,0 -1.88,0 c -0.27,0 -0.49,0.22 -0.49,0.49 0,0.27 0.22,0.49 0.49,0.49 M -0.92,0 c 0.25,0 0.46,-0.21 0.46,-0.46 0,-0.25 -0.21,-0.46 -0.46,-0.46 -0.25,0 -0.46,0.21 -0.46,0.46 0,0.25 0.21,0.46 0.46,0.46 m -6.66,-1.84 c -0.23,0 -0.42,0.19 -0.42,0.42 0,0.23 0.19,0.42 0.42,0.42 0.23,0 0.42,-0.19 0.42,-0.42 0,-0.23 -0.19,-0.42 -0.42,-0.42 M -7.6,-3.73 c -0.22,0 -0.39,0.18 -0.39,0.4 0,0.22 0.18,0.4 0.4,0.4 0.22,0 0.4,-0.18 0.4,-0.39 0,-0.22 -0.18,-0.39 -0.39,-0.39 m -0.01,-1.83 c -0.19,0 -0.35,0.16 -0.35,0.35 0,0.19 0.16,0.35 0.35,0.35 0.19,0 0.35,-0.15 0.35,-0.34 0,-0.19 -0.15,-0.35 -0.34,-0.35 m 0.01,-1.85 c -0.15,0 -0.27,0.12 -0.27,0.27 0,0.15 0.12,0.27 0.27,0.27 0.15,0 0.27,-0.12 0.27,-0.27 0,-0.15 -0.12,-0.27 -0.27,-0.27 m -0.08,-1.81 c -0.1,0 -0.18,0.08 -0.18,0.18 0,0.1 0.08,0.18 0.18,0.18 0.1,0 0.18,-0.08 0.18,-0.18 0,-0.1 -0.08,-0.18 -0.18,-0.18 m -0.89,8.3 c -0.25,0 -0.46,0.21 -0.46,0.46 0,0.25 0.21,0.46 0.46,0.46 0.25,0 0.46,-0.21 0.46,-0.46 0,-0.25 -0.21,-0.46 -0.46,-0.46 m 0,-1.87 c -0.22,0 -0.4,0.18 -0.4,0.4 0,0.22 0.18,0.4 0.4,0.4 0.22,0 0.4,-0.18 0.4,-0.4 0,-0.22 -0.18,-0.4 -0.4,-0.4 m 0.03,-1.85 c -0.2,0 -0.36,0.16 -0.36,0.36 0,0.2 0.16,0.36 0.36,0.36 0.2,0 0.36,-0.16 0.36,-0.36 0,-0.2 -0.16,-0.36 -0.36,-0.36 m -0.01,-1.83 c -0.17,0 -0.31,0.14 -0.31,0.31 0,0.17 0.14,0.31 0.31,0.31 0.17,0 0.31,-0.14 0.31,-0.31 0,-0.17 -0.14,-0.31 -0.31,-0.31 m 0,-1.85 c -0.13,0 -0.24,0.11 -0.24,0.24 0,0.13 0.11,0.24 0.24,0.24 0.13,0 0.24,-0.11 0.24,-0.24 0,-0.13 -0.11,-0.24 -0.24,-0.24 m -0.95,6.48 c -0.23,0 -0.42,0.19 -0.42,0.42 0,0.23 0.19,0.42 0.42,0.42 0.23,0 0.42,-0.19 0.42,-0.42 0,-0.23 -0.19,-0.42 -0.42,-0.42 M -9.5,-3.73 c -0.22,0 -0.39,0.18 -0.39,0.4 0,0.22 0.18,0.4 0.4,0.4 0.22,0 0.4,-0.18 0.4,-0.39 0,-0.22 -0.18,-0.39 -0.39,-0.39 m 0.02,-1.83 c -0.19,0 -0.35,0.16 -0.35,0.35 0,0.19 0.16,0.35 0.35,0.35 0.19,0 0.35,-0.15 0.35,-0.34 0,-0.19 -0.15,-0.35 -0.34,-0.35 m -0.02,-1.85 c -0.15,0 -0.27,0.12 -0.27,0.27 0,0.15 0.12,0.27 0.27,0.27 0.15,0 0.27,-0.12 0.27,-0.27 0,-0.15 -0.12,-0.27 -0.27,-0.27 m -0.15,-1.81 c -0.1,0 -0.18,0.08 -0.18,0.18 0,0.1 0.08,0.18 0.18,0.18 0.1,0 0.18,-0.08 0.18,-0.18 0,-0.1 -0.08,-0.18 -0.18,-0.18 m -0.8,8.3 c -0.25,0 -0.46,0.21 -0.46,0.46 0,0.25 0.21,0.46 0.46,0.46 0.25,0 0.46,-0.21 0.46,-0.46 0,-0.25 -0.21,-0.46 -0.46,-0.46 m 0.02,-1.87 c -0.22,0 -0.4,0.18 -0.4,0.4 0,0.22 0.18,0.4 0.4,0.4 0.22,0 0.4,-0.18 0.4,-0.4 0,-0.22 -0.18,-0.4 -0.4,-0.4 m -0.01,-1.85 c -0.2,0 -0.36,0.16 -0.36,0.36 0,0.2 0.16,0.36 0.36,0.36 0.2,0 0.36,-0.16 0.36,-0.36 0,-0.2 -0.16,-0.36 -0.36,-0.36 m -0.01,-1.82 c -0.16,0 -0.3,0.13 -0.3,0.3 0,0.16 0.13,0.3 0.3,0.3 0.16,0 0.3,-0.13 0.3,-0.3 0,-0.16 -0.13,-0.29 -0.3,-0.29 m 0,-1.82 c -0.11,0 -0.2,0.09 -0.2,0.2 0,0.11 0.09,0.2 0.2,0.2 0.11,0 0.2,-0.09 0.2,-0.2 0,-0.11 -0.09,-0.2 -0.2,-0.2 m -0.8,0.88 c -0.15,0 -0.27,0.12 -0.27,0.27 0,0.15 0.12,0.27 0.27,0.27 0.15,0 0.27,-0.12 0.27,-0.27 0,-0.15 -0.12,-0.27 -0.27,-0.27 m -0.14,-1.81 c -0.1,0 -0.18,0.08 -0.18,0.18 0,0.1 0.08,0.18 0.18,0.18 0.1,0 0.18,-0.08 0.18,-0.18 0,-0.1 -0.08,-0.18 -0.18,-0.18 m -0.35,4 c 0,0.19 0.16,0.35 0.35,0.35 0.19,0 0.35,-0.15 0.35,-0.34 0,-0.19 -0.15,-0.35 -0.35,-0.35 -0.19,0 -0.34,0.16 -0.34,0.35 m 0.33,2.28 c 0.22,0 0.4,-0.18 0.4,-0.39 0,-0.22 -0.18,-0.39 -0.39,-0.39 -0.22,0 -0.39,0.18 -0.39,0.4 0,0.22 0.18,0.4 0.39,0.4 m -0.63,-5.32 c -0.12,0 -0.22,0.1 -0.22,0.22 0,0.12 0.1,0.22 0.22,0.22 0.12,0 0.22,-0.1 0.22,-0.22 0,-0.12 -0.1,-0.22 -0.22,-0.22 m -0.45,2.09 c 0,0.16 0.13,0.3 0.3,0.3 0.16,0 0.3,-0.13 0.3,-0.3 0,-0.16 -0.13,-0.29 -0.3,-0.29 -0.16,0 -0.3,0.13 -0.3,0.3 m -0.15,-1.18 c -0.1,0 -0.18,0.08 -0.18,0.18 0,0.1 0.08,0.18 0.18,0.18 0.1,0 0.18,-0.08 0.18,-0.18 0,-0.1 -0.08,-0.18 -0.18,-0.18 m -0.67,5.47 c -0.25,0 -0.46,0.21 -0.46,0.46 0,0.25 0.21,0.46 0.46,0.46 0.25,0 0.46,-0.21 0.46,-0.46 0,-0.25 -0.21,-0.46 -0.46,-0.46 m 0,-1.85 c -0.22,0 -0.39,0.18 -0.39,0.4 0,0.22 0.18,0.4 0.4,0.4 0.22,0 0.4,-0.18 0.4,-0.39 0,-0.22 -0.18,-0.39 -0.39,-0.39 m 0.03,-1.83 c -0.19,0 -0.35,0.16 -0.35,0.35 0,0.19 0.16,0.35 0.35,0.35 0.19,0 0.35,-0.15 0.35,-0.34 0,-0.19 -0.15,-0.35 -0.34,-0.35 m 0.07,-0.91 c -0.1,0 -0.18,0.08 -0.18,0.18 0,0.1 0.08,0.18 0.18,0.18 0.1,0 0.18,-0.08 0.18,-0.18 0,-0.1 -0.08,-0.18 -0.18,-0.18 m -1.05,3.68 c -0.23,0 -0.42,0.19 -0.42,0.42 0,0.23 0.19,0.42 0.42,0.42 0.23,0 0.42,-0.19 0.42,-0.42 0,-0.23 -0.19,-0.42 -0.42,-0.42 m 0.09,-1.75 c -0.18,0 -0.32,0.14 -0.32,0.32 0,0.18 0.14,0.32 0.32,0.32 0.18,0 0.32,-0.14 0.32,-0.32 0,-0.18 -0.14,-0.32 -0.32,-0.32 m -0.67,0.99 c -0.14,0 -0.26,0.11 -0.26,0.26 0,0.14 0.12,0.26 0.26,0.26 0.14,0 0.26,-0.11 0.26,-0.25 0,-0.14 -0.11,-0.26 -0.26,-0.26 m -0.92,2.13 c 0,0.25 0.21,0.46 0.46,0.46 0.25,0 0.46,-0.21 0.46,-0.46 0,-0.25 -0.21,-0.46 -0.46,-0.46 -0.25,0 -0.46,0.21 -0.46,0.46 m 0.27,-1.2 c -0.1,0 -0.18,0.08 -0.18,0.18 0,0.1 0.08,0.18 0.18,0.18 0.1,0 0.18,-0.08 0.18,-0.18 0,-0.1 -0.08,-0.18 -0.18,-0.18 m -1.91,3.19 c 0,0.16 0.09,0.3 0.22,0.37 l 0.55,0 C -16.42,1 -16.33,0.86 -16.33,0.7 l 0,-0.17 c 0,-0.24 -0.19,-0.43 -0.43,-0.43 l -0.12,0 c -0.24,0 -0.43,0.19 -0.43,0.43 l 0,0.17 z m 1.64,0 c 0,0.16 0.09,0.3 0.22,0.37 l 0.55,0 C -14.78,1 -14.69,0.86 -14.69,0.7 l 0,-0.17 c 0,-0.24 -0.19,-0.43 -0.43,-0.43 l -0.12,0 c -0.24,0 -0.43,0.19 -0.43,0.43 l 0,0.17 z m -0.22,0.37 -0.32,0 c -0.17,0 -0.3,0.14 -0.3,0.32 l 0,0.36 c 0,0.14 0.09,0.26 0.21,0.3 l 0.51,0 c 0.12,-0.04 0.21,-0.16 0.21,-0.3 l 0,-0.36 c 0,-0.17 -0.14,-0.32 -0.3,-0.32 m -0.24,-1.76 c -0.22,0 -0.39,0.18 -0.39,0.4 0,0.22 0.18,0.4 0.4,0.4 0.22,0 0.4,-0.18 0.4,-0.39 0,-0.22 -0.18,-0.39 -0.39,-0.39 M -17.75,3 -18.4,3 c -0.09,0 -0.16,0.07 -0.16,0.16 l 0,0.63 c 0,0.09 0.07,0.16 0.16,0.16 l 0.66,0 c 0.09,0 0.16,-0.07 0.16,-0.16 l 0,-0.63 C -17.58,3.07 -17.65,3 -17.74,3 m 0.24,-0.19 c 0,0.1 0.09,0.19 0.19,0.19 l 0.58,0 c 0.1,0 0.19,-0.08 0.19,-0.19 l 0,-0.57 c 0,-0.1 -0.08,-0.19 -0.19,-0.19 l -0.58,0 c -0.1,0 -0.19,0.09 -0.19,0.19 l 0,0.57 z m 1.94,0 c 0,0.1 0.09,0.19 0.19,0.19 l 0.58,0 c 0.1,0 0.19,-0.08 0.19,-0.19 l 0,-0.57 c 0,-0.1 -0.08,-0.19 -0.19,-0.19 l -0.58,0 c -0.1,0 -0.19,0.09 -0.19,0.19 l 0,0.57 z m 0.96,-1 c 0,0.14 0.11,0.25 0.25,0.25 l 0.46,0 c 0.14,0 0.25,-0.11 0.25,-0.25 l 0,-0.47 c 0,-0.14 -0.11,-0.25 -0.25,-0.25 l -0.46,0 c -0.14,0 -0.25,0.11 -0.25,0.25 l 0,0.47 z m 0.96,-2.13 c 0,-0.28 -0.22,-0.5 -0.5,-0.5 -0.28,0 -0.5,0.22 -0.5,0.5 0,0.28 0.22,0.5 0.5,0.5 0.28,0 0.5,-0.22 0.5,-0.5 m 0.17,1.4 0.57,0 c 0.12,-0.08 0.21,-0.21 0.21,-0.37 l 0,-0.17 c 0,-0.24 -0.19,-0.43 -0.43,-0.43 l -0.12,0 c -0.24,0 -0.43,0.19 -0.43,0.43 l 0,0.17 c 0,0.16 0.08,0.29 0.21,0.37 m 1.53,-5.22 c 0,-0.2 -0.16,-0.36 -0.36,-0.36 -0.2,0 -0.36,0.16 -0.36,0.36 0,0.2 0.16,0.36 0.36,0.36 0.2,0 0.36,-0.16 0.36,-0.36 m -0.29,1.49 c -0.22,0 -0.4,0.18 -0.4,0.4 0,0.22 0.18,0.4 0.4,0.4 0.22,0 0.4,-0.18 0.4,-0.4 0,-0.22 -0.18,-0.4 -0.4,-0.4 m 0,2.79 c 0.25,0 0.46,-0.21 0.46,-0.46 0,-0.25 -0.21,-0.46 -0.46,-0.46 -0.25,0 -0.46,0.21 -0.46,0.46 0,0.25 0.21,0.46 0.46,0.46 m 0.95,-1 c 0.23,0 0.42,-0.19 0.42,-0.42 0,-0.23 -0.19,-0.42 -0.42,-0.42 -0.23,0 -0.42,0.19 -0.42,0.42 0,0.23 0.19,0.42 0.42,0.42 m 12.86,2.85 0,-0.6 C 1.45,1.09 1.31,0.95 1.14,0.95 l -0.32,0 c -0.17,0 -0.31,0.14 -0.31,0.31 l 0,0.32 c 0,0.23 -0.16,0.32 -0.3,0.32 l -0.35,0 c -0.18,0 -0.33,-0.14 -0.33,-0.32 l 0,-0.38 c 0,-0.14 -0.11,-0.25 -0.25,-0.25 l -0.43,0 c -0.14,0 -0.25,0.11 -0.25,0.25 l 0,0.38 c 0,0.23 -0.16,0.32 -0.3,0.32 l -0.35,0 c -0.18,0 -0.32,-0.14 -0.32,-0.32 l 0,-0.44 c 0,-0.1 -0.08,-0.19 -0.19,-0.19 l -0.75,0 0,-0.49 c 0,-0.27 -0.22,-0.49 -0.49,-0.49 l 0,0 c -0.29,0 -0.48,0.2 -0.48,0.48 l 0,0.36 c 0,0.07 -0.06,0.13 -0.13,0.13 l -0.7,0 c -0.07,0 -0.12,-0.06 -0.12,-0.12 l 0,-0.36 c 0,-0.26 -0.21,-0.48 -0.48,-0.48 -0.26,0 -0.48,0.21 -0.48,0.48 l 0,0.36 c 0,0.07 -0.06,0.13 -0.12,0.13 l -0.69,0 c -0.07,0 -0.12,-0.06 -0.12,-0.12 l 0,-0.36 c 0,-0.26 -0.21,-0.48 -0.48,-0.48 -0.26,0 -0.48,0.21 -0.48,0.48 l 0,0.36 c 0,0.07 -0.06,0.13 -0.12,0.13 l -0.69,0 c -0.07,0 -0.12,-0.06 -0.12,-0.12 l 0,-0.38 0,0 c 0,-0.27 -0.22,-0.49 -0.49,-0.49 -0.27,0 -0.49,0.22 -0.49,0.49 l 0,0.38 0,0 c 0,0.07 -0.05,0.13 -0.12,0.13 l -0.68,0 c -0.07,0 -0.12,-0.06 -0.12,-0.12 l 0,-0.36 c 0,-0.26 -0.22,-0.47 -0.47,-0.47 -0.25,0 -0.52,0.17 -0.52,0.47 l 0,0.51 -0.75,0 c -0.13,0 -0.17,0.11 -0.17,0.21 l 0,0.67 c 0,0.04 -0.03,0.06 -0.07,0.06 l -0.72,0 c -0.1,0 -0.19,0.09 -0.19,0.19 l 0,0.68 c 0,0.03 -0.03,0.06 -0.06,0.06 l -0.75,0 c -0.07,0 -0.12,0.06 -0.12,0.12 l 0,0.63 c 0,0.1 -0.08,0.19 -0.19,0.19 l -0.81,0 c 0,0 0.05,-0.01 0.05,-0.09 l 0,-0.7 c 0,-0.07 -0.06,-0.13 -0.13,-0.13 l -0.71,0 c -0.07,0 -0.13,0.06 -0.13,0.13 l 0,0.7 c 0,0.07 0.06,0.13 0.13,0.13 l 0.71,0 c 0.05,0 0.11,0.07 0.11,0.13 l 0,0.62 c 0,0.09 -0.07,0.16 -0.16,0.16 l -0.63,0 c -0.08,0 -0.14,-0.06 -0.15,-0.13 l 0,0 0,-0.56 c 0,-0.12 -0.09,-0.21 -0.21,-0.21 l -0.66,0 c -0.09,0 -0.16,0.07 -0.16,0.16 l 0,0.53 c 0,0.13 -0.11,0.24 -0.24,0.24 l -0.51,0 c -0.13,0 -0.24,-0.11 -0.24,-0.24 l 0,-0.56 c 0,-0.09 -0.07,-0.15 -0.15,-0.16 l -0.73,0 1.11,-1.95 c 0.07,0.06 0.16,0.1 0.26,0.1 l 0.21,0 c 0.21,0 0.37,-0.17 0.37,-0.37 l 0,-0.21 c 0,-0.2 -0.16,-0.37 -0.35,-0.37 l 9.77,-17.2 10.23,18.08 -0.6,0 z" />
          </g>
          <g
             id="g3923"
             transform="translate(393.0551,89.257)"
             style="fill:#ffffff">
            <path
               style="fill:#ffffff;fill-rule:nonzero"
               id="path3925"
               class="s0"
               d="m 0,0 c 0,-0.09 -0.07,-0.16 -0.16,-0.16 l -0.65,0 c -0.09,0 -0.16,0.07 -0.16,0.16 l 0,0.63 c 0,0.09 0.07,0.16 0.16,0.16 l 0.65,0 C -0.07,0.79 0,0.72 0,0.63 L 0,0 Z m -1.06,-0.92 c 0,-0.1 -0.08,-0.19 -0.19,-0.19 l -0.58,0 c -0.1,0 -0.19,0.09 -0.19,0.19 l 0,0.57 c 0,0.1 0.09,0.19 0.19,0.19 l 0.58,0 c 0.1,0 0.19,-0.08 0.19,-0.19 l 0,-0.57 z m -0.22,-1.69 c 0,-0.24 -0.19,-0.43 -0.43,-0.43 l -0.12,0 c -0.24,0 -0.43,0.2 -0.43,0.43 l 0,0.17 c 0,0.16 0.09,0.3 0.22,0.37 l 0.55,0 c 0.13,-0.07 0.22,-0.21 0.22,-0.37 l 0,-0.17 z m -0.91,-1.05 c 0,-0.18 -0.15,-0.33 -0.33,-0.33 l -0.25,0 c -0.18,0 -0.33,0.15 -0.33,0.33 l 0,0.25 c 0,0.18 0.15,0.33 0.33,0.33 l 0.25,0 c 0.18,0 0.33,-0.15 0.33,-0.33 l 0,-0.25 z m -1.4,-1.23 c -0.25,0 -0.46,0.21 -0.46,0.46 0,0.25 0.21,0.46 0.46,0.46 0.25,0 0.46,-0.21 0.46,-0.46 0,-0.25 -0.21,-0.46 -0.46,-0.46 m -0.27,-1.78 c -0.2,0 -0.36,0.16 -0.36,0.36 0,0.2 0.16,0.36 0.36,0.36 0.2,0 0.36,-0.16 0.36,-0.36 0,-0.2 -0.16,-0.36 -0.36,-0.36 m -0.69,0.86 c -0.25,0 -0.46,0.21 -0.46,0.46 0,0.25 0.21,0.46 0.46,0.46 0.25,0 0.46,-0.21 0.46,-0.46 0,-0.25 -0.21,-0.46 -0.46,-0.46 m -0.25,-1.8 c -0.2,0 -0.36,0.16 -0.36,0.36 0,0.2 0.16,0.36 0.36,0.36 0.2,0 0.36,-0.16 0.36,-0.36 0,-0.2 -0.16,-0.36 -0.36,-0.36 m 0.08,-0.78 c -0.11,0 -0.21,0.09 -0.21,0.21 0,0.11 0.09,0.21 0.21,0.21 0.11,0 0.21,-0.09 0.21,-0.21 0,-0.11 -0.09,-0.2 -0.2,-0.2 m -0.62,-1.03 c -0.15,0 -0.27,0.12 -0.27,0.27 0,0.15 0.12,0.27 0.27,0.27 0.15,0 0.27,-0.12 0.27,-0.27 0,-0.15 -0.12,-0.27 -0.27,-0.27 m -0.73,1.24 c 0,0.19 0.16,0.35 0.35,0.35 0.19,0 0.35,-0.15 0.35,-0.35 0,-0.19 -0.15,-0.34 -0.34,-0.34 -0.19,0 -0.35,0.16 -0.35,0.35 m 0,-2.19 c -0.15,0 -0.27,0.12 -0.27,0.27 0,0.15 0.12,0.27 0.27,0.27 0.15,0 0.27,-0.12 0.27,-0.27 0,-0.15 -0.12,-0.27 -0.27,-0.27 m -0.51,0.93 c -0.17,0 -0.31,0.14 -0.31,0.31 0,0.17 0.14,0.31 0.31,0.31 0.17,0 0.31,-0.14 0.31,-0.31 0,-0.17 -0.14,-0.31 -0.31,-0.31 m -0.1,-1.85 c -0.13,0 -0.24,0.11 -0.24,0.24 0,0.13 0.11,0.24 0.24,0.24 0.13,0 0.24,-0.11 0.24,-0.24 0,-0.13 -0.11,-0.24 -0.24,-0.24 m 0.12,6.34 c 0.22,0 0.4,-0.18 0.4,-0.4 0,-0.22 -0.18,-0.4 -0.4,-0.4 -0.22,0 -0.4,0.18 -0.4,0.4 0,0.22 0.18,0.4 0.4,0.4 m 0.4,1.48 c 0,-0.22 -0.18,-0.39 -0.39,-0.39 -0.22,0 -0.39,0.18 -0.39,0.4 0,0.22 0.18,0.4 0.39,0.4 0.22,0 0.4,-0.18 0.4,-0.39 m -0.4,2.38 c 0.27,0 0.48,-0.21 0.48,-0.48 0,-0.26 -0.21,-0.48 -0.48,-0.48 -0.26,0 -0.48,0.22 -0.48,0.48 0,0.27 0.22,0.48 0.48,0.48 m -0.94,-1.86 c -0.25,0 -0.45,0.2 -0.45,0.45 0,0.25 0.2,0.45 0.45,0.45 0.25,0 0.45,-0.2 0.45,-0.45 0,-0.25 -0.2,-0.45 -0.45,-0.45 m 0.1,-5.56 c -0.19,0 -0.35,0.16 -0.35,0.35 0,0.19 0.16,0.35 0.35,0.35 0.19,0 0.35,-0.15 0.35,-0.35 0,-0.19 -0.15,-0.34 -0.34,-0.34 m 0.06,-3.68 c -0.11,0 -0.21,0.09 -0.21,0.21 0,0.11 0.09,0.21 0.21,0.21 0.11,0 0.21,-0.09 0.21,-0.2 0,-0.11 -0.09,-0.21 -0.2,-0.21 m -0.43,2.11 c 0,0.15 0.12,0.27 0.27,0.27 0.15,0 0.27,-0.12 0.27,-0.27 0,-0.15 -0.12,-0.27 -0.27,-0.27 -0.15,0 -0.27,0.12 -0.27,0.27 m -0.15,5.72 c 0,0.23 0.19,0.42 0.42,0.42 0.23,0 0.42,-0.19 0.42,-0.42 0,-0.23 -0.19,-0.42 -0.42,-0.42 -0.23,0 -0.42,0.19 -0.42,0.42 m 0.03,-1.91 c 0,0.22 0.18,0.4 0.4,0.4 0.22,0 0.39,-0.18 0.39,-0.39 0,-0.22 -0.18,-0.39 -0.39,-0.39 -0.22,0 -0.39,0.18 -0.39,0.4 m -0.56,4.25 c -0.26,0 -0.47,0.21 -0.47,0.47 0,0.26 0.21,0.47 0.47,0.47 0.26,0 0.47,-0.21 0.47,-0.47 0,-0.26 -0.21,-0.47 -0.47,-0.47 m -0.4,-1.43 c 0,0.22 0.18,0.4 0.4,0.4 0.22,0 0.4,-0.18 0.4,-0.39 0,-0.22 -0.18,-0.39 -0.39,-0.39 -0.22,0 -0.39,0.18 -0.39,0.4 m 0.39,-2.28 c -0.22,0 -0.4,0.18 -0.4,0.4 0,0.22 0.18,0.4 0.4,0.4 0.22,0 0.41,-0.18 0.41,-0.4 0,-0.22 -0.18,-0.4 -0.4,-0.4 m 0.01,-1.85 c -0.2,0 -0.36,0.16 -0.36,0.36 0,0.2 0.16,0.36 0.36,0.36 0.2,0 0.36,-0.16 0.36,-0.36 0,-0.2 -0.16,-0.36 -0.36,-0.36 m -0.01,-1.87 c -0.19,0 -0.35,0.16 -0.35,0.35 0,0.19 0.16,0.35 0.35,0.35 0.19,0 0.35,-0.15 0.35,-0.34 0,-0.19 -0.15,-0.35 -0.34,-0.35 m 0,-1.81 c -0.13,0 -0.24,0.11 -0.24,0.24 0,0.13 0.11,0.24 0.24,0.24 0.13,0 0.24,-0.11 0.24,-0.24 0,-0.13 -0.11,-0.24 -0.24,-0.24 M -8.94,0.41 c 0,0.21 0.17,0.37 0.37,0.37 l 0.2,0 C -8.16,0.78 -8,0.61 -8,0.41 l 0,-0.2 c 0,-0.2 -0.17,-0.37 -0.37,-0.37 l -0.2,0 c -0.21,0 -0.37,0.17 -0.37,0.37 l 0,0.2 z m 0,2.03 c 0,0.14 0.11,0.25 0.25,0.25 l 0.45,0 c 0.14,0 0.25,-0.11 0.25,-0.25 l 0,-0.45 c 0,-0.14 -0.11,-0.25 -0.25,-0.25 l -0.45,0 c -0.14,0 -0.25,0.11 -0.25,0.25 l 0,0.45 z m -0.48,-3.55 c -0.27,0 -0.48,0.22 -0.48,0.49 0,0.27 0.22,0.49 0.49,0.49 0.27,0 0.48,-0.22 0.48,-0.48 0,-0.27 -0.22,-0.48 -0.48,-0.48 m -0.43,-1.4 c 0,0.23 0.19,0.42 0.42,0.42 0.23,0 0.42,-0.19 0.42,-0.42 0,-0.23 -0.19,-0.42 -0.42,-0.42 -0.23,0 -0.42,0.19 -0.42,0.42 m 0.46,-2.29 c -0.23,0 -0.42,0.19 -0.42,0.42 0,0.23 0.19,0.42 0.42,0.42 0.23,0 0.42,-0.19 0.42,-0.42 0,-0.23 -0.19,-0.42 -0.42,-0.42 M -9.4,-6.67 c -0.22,0 -0.39,0.18 -0.39,0.4 0,0.22 0.18,0.4 0.39,0.4 0.22,0 0.4,-0.18 0.4,-0.39 0,-0.22 -0.18,-0.39 -0.39,-0.39 M -9.4,-8.48 c -0.19,0 -0.34,0.16 -0.34,0.35 0,0.19 0.15,0.35 0.35,0.35 0.19,0 0.35,-0.15 0.35,-0.35 0,-0.19 -0.15,-0.34 -0.34,-0.34 m 0.01,-1.85 c -0.15,0 -0.27,0.12 -0.27,0.27 0,0.15 0.12,0.27 0.27,0.27 0.15,0 0.27,-0.12 0.27,-0.27 0,-0.15 -0.12,-0.27 -0.27,-0.27 m -0.09,-1.81 c -0.1,0 -0.18,0.08 -0.18,0.18 0,0.1 0.08,0.18 0.18,0.18 0.1,0 0.18,-0.08 0.18,-0.18 0,-0.1 -0.08,-0.18 -0.18,-0.18 M -10.32,-2 c -0.26,0 -0.47,0.21 -0.47,0.47 0,0.26 0.21,0.47 0.47,0.47 0.26,0 0.47,-0.21 0.47,-0.47 0,-0.26 -0.21,-0.47 -0.47,-0.47 m 0,-1.82 c -0.22,0 -0.39,0.18 -0.39,0.4 0,0.22 0.18,0.4 0.4,0.4 0.22,0 0.4,-0.18 0.4,-0.39 0,-0.22 -0.18,-0.39 -0.39,-0.39 m -0.01,-1.89 c -0.22,0 -0.4,0.18 -0.4,0.4 0,0.22 0.18,0.4 0.4,0.4 0.22,0 0.4,-0.18 0.4,-0.4 0,-0.22 -0.18,-0.4 -0.4,-0.4 m 0.03,-1.85 c -0.2,0 -0.36,0.16 -0.36,0.36 0,0.2 0.16,0.36 0.36,0.36 0.2,0 0.36,-0.16 0.36,-0.36 0,-0.2 -0.16,-0.36 -0.36,-0.36 m -0.01,-1.83 c -0.17,0 -0.31,0.14 -0.31,0.31 0,0.17 0.14,0.31 0.31,0.31 0.17,0 0.31,-0.14 0.31,-0.31 0,-0.17 -0.14,-0.31 -0.31,-0.31 m -0.01,-1.85 c -0.13,0 -0.24,0.11 -0.24,0.24 0,0.13 0.11,0.24 0.24,0.24 0.13,0 0.24,-0.11 0.24,-0.24 0,-0.13 -0.11,-0.24 -0.24,-0.24 m -0.95,6.48 c -0.23,0 -0.42,0.19 -0.42,0.42 0,0.23 0.19,0.42 0.42,0.42 0.23,0 0.42,-0.19 0.42,-0.42 0,-0.23 -0.19,-0.42 -0.42,-0.42 m 0,-1.89 c -0.22,0 -0.39,0.18 -0.39,0.4 0,0.22 0.18,0.4 0.4,0.4 0.22,0 0.39,-0.18 0.39,-0.39 0,-0.22 -0.18,-0.39 -0.39,-0.39 m 0.01,-1.83 c -0.19,0 -0.34,0.16 -0.34,0.35 0,0.19 0.16,0.35 0.35,0.35 0.19,0 0.35,-0.15 0.35,-0.35 0,-0.19 -0.15,-0.34 -0.35,-0.34 m -0.02,-1.85 c -0.15,0 -0.27,0.12 -0.27,0.27 0,0.15 0.12,0.27 0.27,0.27 0.15,0 0.27,-0.12 0.27,-0.27 0,-0.15 -0.12,-0.27 -0.27,-0.27 m -0.29,-1.81 c -0.1,0 -0.18,0.08 -0.18,0.18 0,0.1 0.08,0.18 0.18,0.18 0.1,0 0.18,-0.08 0.18,-0.18 0,-0.1 -0.08,-0.18 -0.18,-0.18 m 0.7,9.66 c 0,-0.23 -0.19,-0.42 -0.42,-0.42 -0.23,0 -0.42,0.19 -0.42,0.42 0,0.23 0.19,0.42 0.42,0.42 0.23,0 0.42,-0.19 0.42,-0.42 m -0.41,2.37 c 0.27,0 0.48,-0.22 0.48,-0.48 0,-0.27 -0.22,-0.48 -0.48,-0.48 -0.27,0 -0.48,0.22 -0.48,0.49 0,0.27 0.22,0.49 0.49,0.49 m -0.95,-1.9 c -0.26,0 -0.47,0.21 -0.47,0.47 0,0.26 0.21,0.47 0.47,0.47 0.26,0 0.47,-0.21 0.47,-0.47 0,-0.26 -0.21,-0.47 -0.47,-0.47 m -0.44,-1.42 c 0,0.23 0.19,0.42 0.42,0.42 0.23,0 0.42,-0.19 0.42,-0.42 0,-0.23 -0.19,-0.42 -0.42,-0.42 -0.23,0 -0.42,0.19 -0.42,0.42 m 0.45,-2.29 c -0.22,0 -0.4,0.18 -0.4,0.4 0,0.22 0.18,0.4 0.4,0.4 0.22,0 0.4,-0.18 0.4,-0.4 0,-0.22 -0.18,-0.4 -0.4,-0.4 m 0,-1.85 c -0.2,0 -0.36,0.16 -0.36,0.36 0,0.2 0.16,0.36 0.36,0.36 0.2,0 0.36,-0.16 0.36,-0.36 0,-0.2 -0.16,-0.36 -0.36,-0.36 m -0.01,-1.82 c -0.16,0 -0.3,0.13 -0.3,0.3 0,0.16 0.13,0.3 0.3,0.3 0.16,0 0.3,-0.13 0.3,-0.3 0,-0.16 -0.13,-0.3 -0.3,-0.3 m -0.06,-1.86 c -0.13,0 -0.24,0.11 -0.24,0.24 0,0.13 0.11,0.24 0.24,0.24 0.13,0 0.24,-0.11 0.24,-0.24 0,-0.13 -0.11,-0.24 -0.24,-0.24 m 0.53,12.23 0,0.64 c 0,0.09 0.07,0.16 0.16,0.16 l 0.64,0 c 0.09,0 0.16,-0.07 0.16,-0.15 l 0,-0.64 c 0,-0.09 -0.07,-0.16 -0.16,-0.16 l -0.64,0 c -0.08,0 -0.16,0.07 -0.16,0.16 m 0.96,-0.5 c 0,0.19 0.15,0.34 0.34,0.34 l 0.26,0 c 0.19,0 0.34,-0.15 0.34,-0.34 l 0,-0.26 c 0,-0.19 -0.15,-0.34 -0.34,-0.34 l -0.26,0 c -0.19,0 -0.34,0.16 -0.34,0.34 l 0,0.26 z m 0.95,0.93 c 0,0.21 0.17,0.37 0.37,0.37 l 0.2,0 c 0.21,0 0.37,-0.17 0.37,-0.37 l 0,-0.2 c 0,-0.2 -0.17,-0.37 -0.37,-0.37 l -0.2,0 c -0.21,0 -0.37,0.17 -0.37,0.37 l 0,0.2 z m 2.28,0.38 0.2,0 c 0.21,0 0.37,-0.17 0.37,-0.37 l 0,-0.2 C -7.05,0.97 -7.22,0.8 -7.43,0.8 l -0.2,0 C -7.83,0.8 -8,0.97 -8,1.17 l 0,0.2 c 0,0.21 0.17,0.37 0.37,0.37 m 0.62,-2.38 c 0,-0.28 -0.22,-0.5 -0.5,-0.5 -0.28,0 -0.5,0.23 -0.5,0.5 0,0.28 0.23,0.5 0.5,0.5 0.28,0 0.5,-0.23 0.5,-0.5 m -0.03,1.07 c 0,0.19 0.16,0.34 0.34,0.34 l 0.26,0 c 0.19,0 0.34,-0.15 0.34,-0.34 l 0,-0.26 c 0,-0.19 -0.15,-0.34 -0.34,-0.34 l -0.26,0 c -0.19,0 -0.34,0.16 -0.34,0.34 l 0,0.26 z m 0.96,-7.69 c 0,-0.2 -0.16,-0.36 -0.36,-0.36 -0.2,0 -0.36,0.16 -0.36,0.36 0,0.2 0.16,0.36 0.36,0.36 0.2,0 0.36,-0.16 0.36,-0.36 m 0,8.77 c 0,0.12 0.1,0.22 0.22,0.22 l 0.51,0 c 0.09,0 0.17,-0.05 0.2,-0.13 l 0,0 0,-0.68 C -5.18,0.84 -5.26,0.79 -5.35,0.79 l -0.51,0 c -0.12,0 -0.22,0.1 -0.22,0.22 l 0,0.51 z m 0.54,-7.43 c 0.22,0 0.4,-0.18 0.4,-0.39 0,-0.22 -0.18,-0.39 -0.39,-0.39 -0.22,0 -0.39,0.18 -0.39,0.4 0,0.22 0.18,0.4 0.4,0.4 m -0.52,3.39 c 0,0.25 0.2,0.45 0.45,0.45 0.25,0 0.45,-0.2 0.45,-0.45 0,-0.25 -0.2,-0.45 -0.45,-0.45 -0.25,0 -0.45,0.2 -0.45,0.45 m 0.45,-1.45 c 0.23,0 0.42,-0.19 0.42,-0.42 0,-0.23 -0.19,-0.42 -0.42,-0.42 -0.23,0 -0.42,0.19 -0.42,0.42 0,0.23 0.19,0.42 0.42,0.42 m 0.48,3.43 0,-0.2 c 0,-0.2 -0.17,-0.37 -0.37,-0.37 l -0.2,0 c -0.21,0 -0.37,0.17 -0.37,0.37 l 0,0.2 c 0,0.21 0.17,0.37 0.37,0.37 l 0.2,0 c 0.21,0 0.37,-0.17 0.37,-0.37 m 0.2,-0.56 0.51,0 c 0.12,-0.04 0.21,-0.16 0.21,-0.3 l 0,-0.36 c 0,-0.17 -0.14,-0.32 -0.3,-0.32 l -0.32,0 c -0.17,0 -0.3,0.14 -0.3,0.32 l 0,0.36 c 0,0.14 0.09,0.26 0.21,0.3 m 0.73,0.75 c 0,0.1 0.09,0.19 0.19,0.19 l 0.59,0 c 0.1,0 0.19,-0.08 0.19,-0.19 l 0,-0.57 c 0,-0.1 -0.09,-0.19 -0.19,-0.19 l -0.58,0 c -0.1,0 -0.19,0.09 -0.19,0.19 l 0,0.57 z m 0.07,-3.18 c 0,-0.25 -0.21,-0.46 -0.46,-0.46 -0.25,0 -0.46,0.21 -0.46,0.46 0,0.25 0.21,0.46 0.46,0.46 0.25,0 0.46,-0.21 0.46,-0.46 m -0.09,0.92 0,0.17 c 0,0.16 0.09,0.3 0.22,0.37 l 0.55,0 c 0.13,-0.07 0.22,-0.21 0.22,-0.37 l 0,-0.17 c 0,-0.24 -0.19,-0.43 -0.43,-0.43 l -0.12,0 c -0.24,0 -0.43,0.2 -0.43,0.43 m 0.98,1.22 c 0,0.14 0.09,0.26 0.21,0.3 l 0.51,0 c 0.12,-0.04 0.21,-0.16 0.21,-0.3 l 0,-0.36 c 0,-0.17 -0.14,-0.32 -0.3,-0.32 l -0.32,0 c -0.17,0 -0.3,0.14 -0.3,0.32 l 0,0.36 z m -9.52,0.7 c 0,-0.22 -0.18,-0.4 -0.41,-0.4 l -0.14,0 c -0.22,0 -0.4,0.18 -0.4,0.41 l 0,0.25 c 0,0.16 0.14,0.29 0.32,0.29 l 0.32,0 c 0.17,0 0.32,-0.13 0.32,-0.29 l 0,-0.25 z m -0.48,-2.26 c -0.24,0 -0.44,0.2 -0.44,0.44 0,0.24 0.2,0.44 0.44,0.44 0.24,0 0.44,-0.2 0.44,-0.44 0,-0.24 -0.2,-0.44 -0.44,-0.44 m 0.01,-1.85 c -0.23,0 -0.42,0.19 -0.42,0.42 0,0.23 0.19,0.42 0.42,0.42 0.23,0 0.42,-0.19 0.42,-0.42 0,-0.23 -0.19,-0.42 -0.42,-0.42 m 0,-1.89 c -0.22,0 -0.39,0.18 -0.39,0.4 0,0.22 0.18,0.4 0.4,0.4 0.22,0 0.4,-0.18 0.4,-0.39 0,-0.22 -0.18,-0.39 -0.39,-0.39 m 0.01,-1.83 c -0.19,0 -0.34,0.16 -0.34,0.35 0,0.19 0.16,0.35 0.35,0.35 0.19,0 0.35,-0.15 0.35,-0.35 0,-0.19 -0.15,-0.34 -0.34,-0.34 m -0.01,-1.85 c -0.15,0 -0.27,0.12 -0.27,0.27 0,0.15 0.12,0.27 0.27,0.27 0.15,0 0.27,-0.12 0.27,-0.27 0,-0.15 -0.12,-0.27 -0.27,-0.27 m -0.29,-1.84 c -0.12,0 -0.22,0.1 -0.22,0.22 0,0.12 0.1,0.21 0.22,0.21 0.12,0 0.22,-0.1 0.22,-0.21 0,-0.12 -0.1,-0.22 -0.21,-0.22 m -0.66,8.33 c -0.23,0 -0.42,0.19 -0.42,0.42 0,0.23 0.19,0.42 0.42,0.42 0.23,0 0.42,-0.19 0.42,-0.42 0,-0.23 -0.19,-0.42 -0.42,-0.42 m 0,-1.87 c -0.22,0 -0.4,0.18 -0.4,0.4 0,0.22 0.18,0.4 0.41,0.4 0.22,0 0.4,-0.18 0.4,-0.4 0,-0.22 -0.18,-0.4 -0.4,-0.4 m 0.05,-5.55 c -0.14,0 -0.26,0.11 -0.26,0.26 0,0.14 0.12,0.26 0.26,0.26 0.14,0 0.26,-0.11 0.26,-0.25 0,-0.14 -0.11,-0.26 -0.25,-0.26 m -0.34,2.18 c 0,0.16 0.13,0.3 0.3,0.3 0.16,0 0.3,-0.13 0.3,-0.3 0,-0.16 -0.13,-0.3 -0.29,-0.3 -0.16,0 -0.3,0.13 -0.3,0.3 m -0.16,1.89 c 0,0.2 0.16,0.36 0.36,0.36 0.2,0 0.36,-0.16 0.36,-0.36 0,-0.2 -0.16,-0.36 -0.36,-0.36 -0.2,0 -0.36,0.16 -0.36,0.36 m -0.19,-3.13 c -0.15,0 -0.27,0.12 -0.27,0.27 0,0.15 0.12,0.27 0.27,0.27 0.15,0 0.27,-0.12 0.27,-0.27 0,-0.15 -0.12,-0.27 -0.27,-0.27 m -0.64,2.19 c 0,0.19 0.16,0.35 0.35,0.35 0.19,0 0.35,-0.15 0.35,-0.35 0,-0.19 -0.15,-0.34 -0.35,-0.34 -0.19,0 -0.34,0.16 -0.34,0.35 m -0.02,-1.25 c -0.16,0 -0.3,0.13 -0.3,0.3 0,0.16 0.13,0.3 0.3,0.3 0.16,0 0.3,-0.13 0.3,-0.3 0,-0.16 -0.13,-0.3 -0.3,-0.3 m -0.6,3.67 c -0.23,0 -0.42,0.19 -0.42,0.42 0,0.23 0.19,0.42 0.42,0.42 0.23,0 0.42,-0.19 0.42,-0.42 0,-0.23 -0.19,-0.42 -0.42,-0.42 m -0.07,-1.85 c -0.2,0 -0.36,0.16 -0.36,0.36 0,0.2 0.16,0.36 0.36,0.36 0.2,0 0.36,-0.16 0.36,-0.36 0,-0.2 -0.16,-0.36 -0.36,-0.36 m -0.04,-0.82 c -0.12,0 -0.22,0.1 -0.22,0.22 0,0.12 0.1,0.22 0.22,0.22 0.12,0 0.21,-0.1 0.21,-0.21 0,-0.12 -0.09,-0.21 -0.21,-0.21 m 0.11,5.46 c 0.25,0 0.46,-0.2 0.46,-0.46 0,-0.25 -0.21,-0.46 -0.46,-0.46 -0.25,0 -0.46,0.21 -0.46,0.46 0,0.25 0.21,0.46 0.46,0.46 m -0.96,-0.03 c -0.27,0 -0.48,0.22 -0.48,0.49 0,0.27 0.22,0.48 0.49,0.48 0.27,0 0.49,-0.22 0.49,-0.48 0,-0.27 -0.22,-0.48 -0.48,-0.48 m 0.01,-1.84 c -0.25,0 -0.46,0.21 -0.46,0.46 0,0.25 0.21,0.46 0.46,0.46 0.25,0 0.46,-0.21 0.46,-0.46 0,-0.25 -0.2,-0.46 -0.46,-0.46 m 0.05,-1.85 c -0.22,0 -0.39,0.18 -0.39,0.4 0,0.22 0.18,0.4 0.4,0.4 0.22,0 0.39,-0.18 0.39,-0.39 0,-0.22 -0.18,-0.39 -0.39,-0.39 m -0.71,0.99 c -0.2,0 -0.37,0.17 -0.37,0.37 0,0.21 0.17,0.37 0.37,0.37 0.21,0 0.37,-0.17 0.37,-0.37 0,-0.2 -0.17,-0.37 -0.37,-0.37 m -0.76,1.14 c -0.12,0 -0.21,0.1 -0.21,0.22 0,0.12 0.1,0.22 0.22,0.22 0.12,0 0.22,-0.1 0.22,-0.21 0,-0.12 -0.1,-0.21 -0.22,-0.21 m -0.97,2.06 c 0,0.27 0.22,0.48 0.49,0.48 0.27,0 0.48,-0.22 0.48,-0.48 0,-0.27 -0.22,-0.48 -0.48,-0.48 -0.27,0 -0.48,0.22 -0.48,0.49 m -0.22,0.56 -0.26,0 c -0.14,0 -0.25,0.11 -0.25,0.25 l 0,0.26 c 0,0.14 0.11,0.25 0.25,0.25 l 0.26,0 c 0.14,0 0.25,-0.11 0.25,-0.25 l 0,-0.26 c 0,-0.14 -0.11,-0.25 -0.25,-0.25 m 1.66,-1.02 c 0.25,0 0.46,-0.2 0.46,-0.46 0,-0.25 -0.21,-0.46 -0.46,-0.46 -0.25,0 -0.46,0.21 -0.46,0.46 0,0.25 0.21,0.46 0.46,0.46 m -0.46,1.56 c 0,0.17 0.14,0.31 0.31,0.31 l 0.33,0 c 0.17,0 0.31,-0.14 0.31,-0.31 l 0,-0.32 c 0,-0.17 -0.14,-0.31 -0.31,-0.31 l -0.32,0 c -0.17,0 -0.31,0.14 -0.31,0.31 l 0,0.33 z m 2.38,0.35 c 0.28,0 0.5,-0.22 0.5,-0.5 0,-0.28 -0.22,-0.5 -0.5,-0.5 -0.28,0 -0.5,0.22 -0.5,0.5 0,0.28 0.22,0.5 0.5,0.5 m 1.34,-5.23 c 0,-0.22 -0.18,-0.39 -0.39,-0.39 -0.22,0 -0.39,0.18 -0.39,0.4 0,0.22 0.18,0.4 0.4,0.4 0.22,0 0.4,-0.18 0.4,-0.39 m -0.4,1.45 c -0.25,0 -0.46,0.21 -0.46,0.46 0,0.25 0.21,0.46 0.46,0.46 0.25,0 0.46,-0.21 0.46,-0.46 0,-0.25 -0.21,-0.46 -0.46,-0.46 m 0,2.8 c 0.26,0 0.47,-0.21 0.47,-0.47 0,-0.26 -0.21,-0.47 -0.47,-0.47 -0.26,0 -0.47,0.21 -0.47,0.47 0,0.26 0.21,0.47 0.47,0.47 m 0.95,0.95 c 0.27,0 0.49,-0.22 0.49,-0.49 0,-0.27 -0.22,-0.49 -0.49,-0.49 -0.27,0 -0.49,0.22 -0.49,0.49 0,0.27 0.22,0.49 0.49,0.49 M 0.12,0.76 c -0.09,0 -0.16,0.07 -0.16,0.16 l 0,0.56 c 0,0.13 -0.11,0.24 -0.24,0.24 l -0.51,0 c -0.13,0 -0.24,-0.11 -0.24,-0.24 l 0,-0.53 c 0,-0.09 -0.07,-0.16 -0.16,-0.16 l -0.66,0 C -1.96,0.8 -2.05,0.89 -2.05,1 l 0,0.56 0,0 C -2.06,1.64 -2.13,1.7 -2.21,1.7 l -0.63,0 C -2.93,1.7 -3,1.63 -3,1.54 l 0,-0.62 c 0,-0.06 0.06,-0.13 0.11,-0.13 l 0.71,0 c 0.07,0 0.13,-0.06 0.13,-0.12 l 0,-0.7 c 0,-0.07 -0.06,-0.13 -0.13,-0.13 l -0.71,0 c -0.07,0 -0.13,0.06 -0.13,0.13 l 0,0.7 c 0,0.08 0.05,0.09 0.05,0.09 l -0.92,0 c -0.1,0 -0.19,-0.08 -0.19,-0.19 l 0,-0.62 c 0,-0.07 0,-0.12 -0.07,-0.12 l -0.72,0 c -0.12,0 -0.22,0.1 -0.22,0.22 l 0,0.51 c 0,0.12 0.1,0.22 0.22,0.22 l 0.59,0 c 0.1,0 0.18,-0.07 0.21,-0.16 l 0,1.01 c -0.01,0.06 -0.06,0.1 -0.12,0.1 l -0.84,0 c -0.07,0 -0.12,0.06 -0.12,0.13 0,0 0,0.67 0,0.67 0,0.1 -0.08,0.16 -0.15,0.16 l -0.64,0 c -0.09,0 -0.15,-0.07 -0.15,-0.16 l 0,-0.64 c 0,-0.09 -0.07,-0.16 -0.16,-0.16 l -0.63,0 c -0.08,0 -0.16,0.07 -0.16,0.16 l 0,0.64 c 0,0.09 0.07,0.16 0.16,0.16 l 0.78,0 c 0,0 0,0 0,0 l 0,0.71 c 0,0.14 -0.11,0.25 -0.25,0.25 l -0.45,0 c -0.14,0 -0.25,-0.11 -0.25,-0.25 l 0,-0.53 0,0 C -7.06,2.77 -7.14,2.69 -7.24,2.69 l -0.57,0 c -0.1,0 -0.18,0.08 -0.19,0.18 l 0,0.62 c 0,0.09 -0.07,0.16 -0.15,0.16 l -0.64,0 c -0.08,0 -0.15,-0.07 -0.16,-0.15 0,0 0,0 0,0 l 0,-0.64 c 0,-0.08 -0.07,-0.15 -0.16,-0.15 l -0.63,0 c -0.09,0 -0.16,0.07 -0.16,0.16 l 0,0.58 c 0,0.12 -0.1,0.22 -0.22,0.22 l -0.51,0 c -0.12,0 -0.22,-0.1 -0.22,-0.22 l 0,-0.52 c 0,-0.12 0.1,-0.22 0.22,-0.22 l 0.52,0 c 0.12,0 0.21,-0.1 0.21,-0.21 l 0,-0.53 c 0,-0.12 -0.09,-0.21 -0.21,-0.21 l -0.52,0 c -0.12,0 -0.21,0.1 -0.21,0.21 l 0,0.53 c 0,0.12 -0.1,0.21 -0.21,0.21 l -0.53,0 c -0.12,0 -0.21,-0.1 -0.21,-0.21 l 0,-0.74 -0.65,0 c -0.17,0 -0.3,-0.14 -0.3,-0.3 l 0,-0.64 c 0,0 0,0 0,0 l 0.83,0 c 0.06,0 0.11,-0.05 0.11,-0.11 l 0,-0.5 c 0,-0.19 -0.15,-0.34 -0.34,-0.34 l -0.26,0 c -0.19,0 -0.34,0.15 -0.34,0.34 l 0,0 0,0.31 c 0,0.17 -0.14,0.3 -0.3,0.3 l -0.35,0 c -0.17,0 -0.3,-0.14 -0.3,-0.3 l 0,-0.31 c 0,-0.24 -0.1,-0.33 -0.27,-0.33 l -0.64,0 0,-0.7 c 0,-0.15 -0.13,-0.28 -0.28,-0.28 l -0.41,0 c -0.15,0 -0.28,0.13 -0.28,0.28 l 0,0.38 c 0,0.17 -0.14,0.3 -0.3,0.3 l -0.35,0 c -0.17,0 -0.3,-0.14 -0.3,-0.3 l 0,-0.38 c 0,-0.15 -0.13,-0.28 -0.28,-0.28 l -0.41,0 c -0.15,0 -0.28,0.13 -0.28,0.28 l 0,0.39 c -0.01,0.16 -0.14,0.29 -0.3,0.29 l -0.34,0 c -0.17,0 -0.3,-0.14 -0.3,-0.3 l 0,-0.44 c 0,-0.12 -0.1,-0.22 -0.22,-0.22 l -0.51,0 c -0.12,0 -0.22,0.1 -0.22,0.22 l 0,0.44 c 0,0.17 -0.14,0.3 -0.3,0.3 l -0.34,0 c -0.17,0 -0.3,-0.14 -0.3,-0.3 l 0,-0.48 c 0,-0.09 -0.07,-0.16 -0.16,-0.16 l -0.26,0 10.31,-18.13 7.63,13.5 c -0.01,0 -0.03,0 -0.04,0 -0.2,0 -0.36,0.16 -0.36,0.36 0,0.2 0.16,0.36 0.36,0.36 0.15,0 0.28,-0.09 0.33,-0.22 l 1.8,3.17 c -0.17,0 -0.3,0.14 -0.3,0.32 l 0,0.36 c 0,0.14 0.09,0.26 0.21,0.3 l 0.51,0 c 0.05,0 0.1,-0.06 0.1,-0.06 L 0.9,0.8 0.17,0.8 Z" />
          </g>
          <g
             id="g3927"
             transform="translate(393.9086,90.0957)"
             style="fill:#ffffff">
            <path
               style="fill:#ffffff;fill-rule:nonzero"
               id="path3929"
               class="s0"
               d="M 0,0 0.04,0 0.56,0.91 0,0.91 c -0.1,0 -0.18,-0.08 -0.18,-0.18 l 0,-0.55 C -0.18,0.08 -0.1,0 0,0" />
          </g>
          <g
             id="g3931"
             transform="translate(336.4588,49.6579)"
             style="fill:#ffffff">
            <path
               style="fill:#ffffff;fill-rule:nonzero"
               id="path3933"
               class="s0"
               d="m 0,0 1.18,0 0,0.32 -2.72,0 0,-0.32 1.18,0 0,-3.21 0.36,0 L 0,0 Z m 1.84,-3.21 0.36,0 0,1.67 1.93,0 0,-1.67 0.36,0 0,3.53 -0.36,0 0,-1.53 -1.93,0 0,1.53 -0.36,0 0,-3.53 z m 3.92,1.68 1.71,0 0,0.32 -1.71,0 0,1.21 1.83,0 0,0.32 -2.19,0 0,-3.53 2.25,0 0,0.32 -1.89,0 0,1.36 z m 5.9,-1.63 c 0.17,0.09 0.31,0.21 0.41,0.35 0.1,0.14 0.17,0.29 0.21,0.46 0.04,0.17 0.06,0.32 0.06,0.47 l 0,2.22 -0.36,0 0,-2.18 c 0,-0.14 -0.01,-0.28 -0.05,-0.42 -0.03,-0.13 -0.09,-0.26 -0.16,-0.36 -0.07,-0.1 -0.17,-0.19 -0.29,-0.26 -0.12,-0.06 -0.28,-0.1 -0.45,-0.1 -0.18,0 -0.33,0.03 -0.45,0.1 -0.12,0.07 -0.22,0.15 -0.3,0.26 -0.07,0.1 -0.13,0.22 -0.16,0.36 -0.03,0.14 -0.05,0.27 -0.05,0.42 l 0,2.18 -0.36,0 0,-2.22 c 0,-0.15 0.02,-0.3 0.06,-0.47 0.04,-0.16 0.11,-0.32 0.21,-0.45 0.1,-0.14 0.24,-0.25 0.4,-0.35 0.17,-0.09 0.39,-0.14 0.65,-0.14 0.26,0 0.48,0.05 0.65,0.14 m 1.94,3.49 -0.45,0 0,-3.53 0.36,0 0,3.04 0.01,0 2.06,-3.04 0.45,0 0,3.53 -0.36,0 0,-3.01 -0.01,0 -2.06,3.01 z m 3.63,0 -0.36,0 0,-3.53 0.36,0 0,3.53 z m 1,0 -0.39,0 1.35,-3.53 0.38,0 1.35,3.53 -0.38,0 -1.15,-3.07 -0.01,0 -1.15,3.07 z m 3.58,-1.85 1.71,0 0,0.32 -1.71,0 0,1.21 1.83,0 0,0.32 -2.19,0 0,-3.53 2.25,0 0,0.32 -1.89,0 0,1.36 z m 3,-0.03 0.6,0 0.98,-1.65 0.44,0 -1.03,1.68 c 0.13,0.01 0.25,0.04 0.36,0.09 0.11,0.05 0.21,0.11 0.28,0.19 0.08,0.08 0.14,0.17 0.19,0.28 0.05,0.11 0.07,0.23 0.07,0.36 0,0.17 -0.03,0.32 -0.09,0.44 -0.06,0.12 -0.14,0.22 -0.25,0.29 C 26.27,0.22 26.14,0.27 26,0.3 25.85,0.33 25.69,0.35 25.52,0.35 l -1.04,0 0,-3.53 0.36,0 0,1.65 z m 0,1.57 0.64,0 c 0.13,0 0.25,-0.01 0.36,-0.04 0.11,-0.02 0.2,-0.06 0.28,-0.11 0.08,-0.05 0.14,-0.11 0.18,-0.19 0.04,-0.08 0.06,-0.18 0.06,-0.29 0,-0.21 -0.08,-0.37 -0.23,-0.47 -0.16,-0.1 -0.38,-0.16 -0.67,-0.16 l -0.62,0 0,1.26 z M 29.5,0 c -0.09,0.12 -0.21,0.22 -0.38,0.3 -0.17,0.09 -0.37,0.13 -0.61,0.13 -0.13,0 -0.26,-0.02 -0.39,-0.05 -0.13,-0.04 -0.25,-0.09 -0.36,-0.17 -0.11,-0.08 -0.2,-0.18 -0.27,-0.3 -0.07,-0.12 -0.1,-0.27 -0.1,-0.44 0,-0.16 0.03,-0.29 0.08,-0.4 0.06,-0.11 0.13,-0.2 0.22,-0.28 0.09,-0.07 0.19,-0.13 0.3,-0.18 0.11,-0.05 0.23,-0.09 0.35,-0.12 0.11,-0.04 0.22,-0.07 0.32,-0.11 0.1,-0.04 0.19,-0.08 0.27,-0.14 0.08,-0.06 0.14,-0.12 0.19,-0.2 0.05,-0.08 0.07,-0.18 0.07,-0.31 0,-0.11 -0.02,-0.21 -0.07,-0.3 -0.05,-0.08 -0.11,-0.16 -0.18,-0.21 -0.07,-0.06 -0.16,-0.1 -0.25,-0.13 -0.09,-0.03 -0.18,-0.04 -0.28,-0.04 -0.18,0 -0.35,0.04 -0.49,0.13 -0.14,0.08 -0.24,0.19 -0.32,0.32 l -0.31,-0.23 c 0.07,-0.09 0.14,-0.16 0.22,-0.23 0.09,-0.07 0.17,-0.12 0.27,-0.16 0.1,-0.04 0.2,-0.08 0.3,-0.1 0.11,-0.02 0.21,-0.03 0.32,-0.03 0.14,0 0.28,0.02 0.42,0.06 0.14,0.04 0.26,0.1 0.37,0.19 0.11,0.08 0.19,0.19 0.26,0.32 0.07,0.13 0.1,0.28 0.1,0.46 0,0.18 -0.03,0.32 -0.09,0.44 -0.06,0.12 -0.14,0.21 -0.24,0.29 -0.1,0.07 -0.21,0.14 -0.34,0.18 -0.12,0.05 -0.25,0.09 -0.37,0.13 -0.1,0.03 -0.19,0.07 -0.29,0.1 -0.09,0.04 -0.17,0.08 -0.24,0.13 -0.07,0.05 -0.13,0.12 -0.17,0.19 -0.04,0.07 -0.07,0.17 -0.07,0.28 0,0.11 0.02,0.21 0.07,0.29 0.04,0.08 0.1,0.15 0.18,0.21 0.08,0.05 0.16,0.1 0.24,0.12 0.09,0.03 0.18,0.04 0.27,0.04 0.17,0 0.31,-0.03 0.43,-0.1 0.12,-0.06 0.22,-0.15 0.3,-0.26 l 0.28,0.23 z m 1.16,0.34 -0.36,0 0,-3.53 0.36,0 0,3.53 z M 32.67,0 l 1.18,0 0,0.32 -2.72,0 0,-0.32 1.18,0 0,-3.21 0.36,0 0,3.21 z m 3.28,-1.69 1.32,2.01 -0.42,0 -1.07,-1.71 -1.06,1.71 -0.45,0 1.32,-2.01 0,-1.52 0.36,0 0,1.52 z m 6.37,0.99 c -0.09,0.23 -0.22,0.42 -0.39,0.59 -0.17,0.16 -0.36,0.29 -0.58,0.39 -0.22,0.09 -0.47,0.14 -0.73,0.14 -0.26,0 -0.51,-0.04 -0.73,-0.14 -0.22,-0.09 -0.42,-0.22 -0.58,-0.39 -0.16,-0.16 -0.29,-0.36 -0.39,-0.59 -0.09,-0.23 -0.14,-0.47 -0.14,-0.74 0,-0.27 0.05,-0.52 0.14,-0.74 0.09,-0.23 0.22,-0.42 0.39,-0.59 0.16,-0.16 0.36,-0.29 0.58,-0.38 0.22,-0.09 0.47,-0.14 0.73,-0.14 0.26,0 0.51,0.05 0.73,0.14 0.23,0.09 0.42,0.22 0.59,0.39 0.16,0.17 0.29,0.36 0.39,0.59 0.09,0.23 0.14,0.47 0.14,0.74 0,0.27 -0.04,0.52 -0.14,0.74 m -0.34,-1.33 c -0.07,-0.19 -0.16,-0.35 -0.29,-0.49 -0.13,-0.14 -0.28,-0.25 -0.46,-0.33 -0.18,-0.08 -0.39,-0.12 -0.61,-0.12 -0.23,0 -0.43,0.04 -0.61,0.12 -0.18,0.08 -0.33,0.2 -0.46,0.33 -0.12,0.14 -0.22,0.3 -0.29,0.49 -0.07,0.19 -0.1,0.38 -0.1,0.59 0,0.21 0.03,0.4 0.1,0.59 0.07,0.19 0.16,0.35 0.29,0.49 0.13,0.14 0.28,0.25 0.46,0.34 0.18,0.08 0.38,0.12 0.61,0.12 0.23,0 0.43,-0.04 0.61,-0.12 0.18,-0.08 0.34,-0.19 0.46,-0.34 0.13,-0.14 0.22,-0.3 0.29,-0.49 0.07,-0.19 0.1,-0.38 0.1,-0.59 0,-0.21 -0.03,-0.4 -0.1,-0.59 m 1.64,0.5 1.65,0 0,0.32 -1.65,0 0,1.22 1.77,0 0,0.32 -2.13,0 0,-3.53 0.36,0 0,1.67 z m 3.71,1.86 -0.38,0 1.04,-3.53 0.42,0 0.89,3.03 0.01,0 0.89,-3.03 0.42,0 1.04,3.53 -0.38,0 -0.86,-3.04 -0.01,0 -0.88,3.04 -0.43,0 -0.88,-3.04 -0.01,0 -0.87,3.04 z m 4.93,-2.61 1.83,0 0.39,-0.93 0.4,0 -1.52,3.53 -0.35,0 -1.53,-3.53 0.4,0 0.38,0.93 z m 0.91,2.21 0.78,-1.88 -1.56,0 0.78,1.88 z m 2.63,-1.48 0.6,0 0.98,-1.65 0.44,0 -1.03,1.68 c 0.13,0.01 0.25,0.04 0.36,0.09 0.11,0.05 0.21,0.11 0.29,0.19 0.08,0.08 0.14,0.17 0.19,0.28 0.05,0.11 0.07,0.23 0.07,0.36 0,0.17 -0.03,0.32 -0.09,0.44 -0.06,0.12 -0.14,0.22 -0.25,0.29 -0.11,0.08 -0.24,0.13 -0.38,0.16 -0.15,0.03 -0.31,0.05 -0.48,0.05 l -1.04,0 0,-3.53 0.36,0 0,1.65 z m 0,1.57 0.64,0 c 0.13,0 0.25,-0.01 0.36,-0.04 0.11,-0.02 0.2,-0.06 0.28,-0.11 0.08,-0.05 0.14,-0.11 0.18,-0.19 0.04,-0.08 0.07,-0.18 0.07,-0.29 0,-0.21 -0.08,-0.37 -0.23,-0.47 -0.16,-0.1 -0.38,-0.16 -0.67,-0.16 l -0.62,0 0,1.26 z m 2.8,0.31 -0.38,0 1.04,-3.53 0.42,0 0.89,3.03 0.01,0 0.89,-3.03 0.42,0 1.04,3.53 -0.38,0 -0.86,-3.04 -0.01,0 -0.88,3.04 -0.43,0 -0.88,-3.04 -0.01,0 -0.87,3.04 z m 5.35,0 -0.36,0 0,-3.53 0.36,0 0,3.53 z m 3.68,-2.78 C 67.52,-2.62 67.36,-2.76 67.18,-2.84 67,-2.92 66.8,-2.97 66.6,-2.97 c -0.23,0 -0.43,0.04 -0.61,0.12 -0.18,0.08 -0.34,0.2 -0.46,0.34 -0.13,0.14 -0.22,0.31 -0.29,0.49 -0.07,0.19 -0.1,0.38 -0.1,0.59 0,0.2 0.03,0.4 0.1,0.59 0.07,0.19 0.16,0.35 0.29,0.49 0.13,0.14 0.28,0.25 0.46,0.34 0.18,0.08 0.39,0.12 0.62,0.12 0.11,0 0.22,-0.01 0.32,-0.04 0.1,-0.02 0.19,-0.06 0.27,-0.1 0.08,-0.04 0.16,-0.09 0.22,-0.15 0.06,-0.06 0.11,-0.11 0.15,-0.17 l 0.3,0.22 C 67.81,-0.04 67.74,0.04 67.65,0.1 67.56,0.17 67.46,0.23 67.35,0.28 67.24,0.33 67.12,0.37 67,0.4 66.88,0.43 66.75,0.44 66.62,0.44 66.36,0.44 66.11,0.4 65.89,0.3 65.67,0.21 65.47,0.08 65.31,-0.09 c -0.16,-0.16 -0.29,-0.36 -0.39,-0.59 -0.09,-0.23 -0.14,-0.47 -0.14,-0.74 0,-0.27 0.05,-0.52 0.14,-0.74 0.09,-0.23 0.22,-0.42 0.38,-0.59 0.16,-0.16 0.36,-0.29 0.58,-0.38 0.23,-0.09 0.47,-0.14 0.74,-0.14 0.16,0 0.31,0.02 0.44,0.05 0.14,0.04 0.26,0.08 0.37,0.14 0.11,0.06 0.21,0.13 0.29,0.21 0.08,0.08 0.16,0.17 0.22,0.25 l -0.28,0.18 z m 1.38,2.78 -0.36,0 0,-3.53 0.36,0 0,1.88 0.01,0 1.76,-1.88 0.53,0 -1.88,1.93 1.78,1.6 -0.51,0 -1.68,-1.59 0,0 0,1.59 z" />
          </g>
        </g>
      </g>
    </g>
  </g>
</svg>
